<?xml version="1.0" encoding="UTF-8" standalone="no"?><svg xmlns="http://www.w3.org/2000/svg" xmlns:xlink="http://www.w3.org/1999/xlink" contentScriptType="application/ecmascript" contentStyleType="text/css" height="834px" preserveAspectRatio="none" style="width:1443px;height:834px;" version="1.1" viewBox="0 0 1443 834" width="1443px" zoomAndPan="magnify"><defs><filter height="300%" id="f1ky9rriz17va6" width="300%" x="-1" y="-1"><feGaussianBlur result="blurOut" stdDeviation="2.0"/><feColorMatrix in="blurOut" result="blurOut2" type="matrix" values="0 0 0 0 0 0 0 0 0 0 0 0 0 0 0 0 0 0 .4 0"/><feOffset dx="4.0" dy="4.0" in="blurOut2" result="blurOut3"/><feBlend in="SourceGraphic" in2="blurOut3" mode="normal"/></filter></defs><g><!--MD5=[ee7dd9e26f447f0559e0a68b0ee6d2b3]
cluster npm--><rect fill="#FFFFFF" filter="url(#f1ky9rriz17va6)" height="113" style="stroke: #000000; stroke-width: 1.5;" width="244" x="549" y="349"/><text fill="#000000" font-family="sans-serif" font-size="14" font-weight="bold" lengthAdjust="spacingAndGlyphs" textLength="32" x="655" y="365.9659">npm</text><!--MD5=[67cd15ce44b6dd54f77054b62c31bf42]
cluster types--><rect fill="#FFFFFF" filter="url(#f1ky9rriz17va6)" height="491" style="stroke: #000000; stroke-width: 1.5;" width="482" x="817" y="332"/><text fill="#000000" font-family="sans-serif" font-size="14" font-weight="bold" lengthAdjust="spacingAndGlyphs" textLength="38" x="1039" y="348.9659">types</text><!--MD5=[dce4c2b5694dd28223e7b1d160ba96c4]
cluster data--><rect fill="#FFFFFF" filter="url(#f1ky9rriz17va6)" height="294" style="stroke: #000000; stroke-width: 1.5;" width="503" x="22" y="168"/><text fill="#000000" font-family="sans-serif" font-size="14" font-weight="bold" lengthAdjust="spacingAndGlyphs" textLength="31" x="258" y="184.9659">data</text><!--MD5=[9a53b195b9e6dcc8c7a5cc20ca36bc92]
cluster functions--><rect fill="#FFFFFF" filter="url(#f1ky9rriz17va6)" height="257" style="stroke: #000000; stroke-width: 1.5;" width="677" x="627" y="24"/><text fill="#000000" font-family="sans-serif" font-size="14" font-weight="bold" lengthAdjust="spacingAndGlyphs" textLength="65" x="933" y="40.9659">functions</text><!--MD5=[31e6c6bcee0656a3e931837d3ccb9e75]
class pluralize--><rect fill="#FEFECE" filter="url(#f1ky9rriz17va6)" height="58.6882" id="pluralize" style="stroke: #A80036; stroke-width: 1.5;" width="80" x="565" y="387"/><ellipse cx="580" cy="408.3441" fill="#AADDFF" rx="11" ry="11" style="stroke: #A80036; stroke-width: 1.0;"/><path d="M576.875,414.3441 L576.875,401.9535 L579.3125,401.9535 L579.3125,412.1879 L584.5469,412.1879 L584.5469,414.3441 L576.875,414.3441 Z "/><text fill="#000000" font-family="sans-serif" font-size="12" font-style="italic" lengthAdjust="spacingAndGlyphs" textLength="48" x="594" y="404.8281">«library»</text><text fill="#000000" font-family="sans-serif" font-size="12" lengthAdjust="spacingAndGlyphs" textLength="48" x="594" y="421.1722">pluralize</text><line style="stroke: #A80036; stroke-width: 1.5;" x1="566" x2="644" y1="429.6882" y2="429.6882"/><line style="stroke: #A80036; stroke-width: 1.5;" x1="566" x2="644" y1="437.6882" y2="437.6882"/><!--MD5=[6e9a1958762725ce636ad29a33f26a0c]
class capitalCase--><rect fill="#FEFECE" filter="url(#f1ky9rriz17va6)" height="58.6882" id="capitalCase" style="stroke: #A80036; stroke-width: 1.5;" width="97" x="680.5" y="387"/><ellipse cx="695.5" cy="408.3441" fill="#AADDFF" rx="11" ry="11" style="stroke: #A80036; stroke-width: 1.0;"/><path d="M692.375,414.3441 L692.375,401.9535 L694.8125,401.9535 L694.8125,412.1879 L700.0469,412.1879 L700.0469,414.3441 L692.375,414.3441 Z "/><text fill="#000000" font-family="sans-serif" font-size="12" font-style="italic" lengthAdjust="spacingAndGlyphs" textLength="48" x="718" y="404.8281">«library»</text><text fill="#000000" font-family="sans-serif" font-size="12" lengthAdjust="spacingAndGlyphs" textLength="65" x="709.5" y="421.1722">capitalCase</text><line style="stroke: #A80036; stroke-width: 1.5;" x1="681.5" x2="776.5" y1="429.6882" y2="429.6882"/><line style="stroke: #A80036; stroke-width: 1.5;" x1="681.5" x2="776.5" y1="437.6882" y2="437.6882"/><!--MD5=[a722d691dd27b5fcdb7d2ece61b9041e]
class Metadata<T>--><rect fill="#FEFECE" filter="url(#f1ky9rriz17va6)" height="92.9457" id="Metadata&lt;T&gt;" style="stroke: #A80036; stroke-width: 1.5;" width="139" x="1143.5" y="370"/><ellipse cx="1172.9" cy="386" fill="#ADD1B2" rx="11" ry="11" style="stroke: #A80036; stroke-width: 1.0;"/><path d="M1175.8688,391.6406 Q1175.2906,391.9375 1174.65,392.0781 Q1174.0094,392.2344 1173.3063,392.2344 Q1170.8063,392.2344 1169.4781,390.5938 Q1168.1656,388.9375 1168.1656,385.8125 Q1168.1656,382.6875 1169.4781,381.0313 Q1170.8063,379.375 1173.3063,379.375 Q1174.0094,379.375 1174.65,379.5313 Q1175.3063,379.6875 1175.8688,379.9844 L1175.8688,382.7031 Q1175.2438,382.125 1174.65,381.8594 Q1174.0563,381.5781 1173.4313,381.5781 Q1172.0875,381.5781 1171.4,382.6563 Q1170.7125,383.7188 1170.7125,385.8125 Q1170.7125,387.9063 1171.4,388.9844 Q1172.0875,390.0469 1173.4313,390.0469 Q1174.0563,390.0469 1174.65,389.7813 Q1175.2438,389.5 1175.8688,388.9219 L1175.8688,391.6406 Z "/><text fill="#000000" font-family="sans-serif" font-size="12" lengthAdjust="spacingAndGlyphs" textLength="75" x="1190.1" y="390.656">Metadata&lt;T&gt;</text><line style="stroke: #A80036; stroke-width: 1.5;" x1="1144.5" x2="1281.5" y1="402" y2="402"/><ellipse cx="1154.5" cy="413" fill="none" rx="3" ry="3" style="stroke: #038048; stroke-width: 1.0;"/><text fill="#000000" font-family="sans-serif" font-size="11" lengthAdjust="spacingAndGlyphs" textLength="66" x="1163.5" y="417.7589">name: string</text><ellipse cx="1154.5" cy="427.9819" fill="none" rx="3" ry="3" style="stroke: #038048; stroke-width: 1.0;"/><text fill="#000000" font-family="sans-serif" font-size="11" lengthAdjust="spacingAndGlyphs" textLength="113" x="1163.5" y="432.7408">dataType: SomeTypes</text><ellipse cx="1154.5" cy="442.9638" fill="none" rx="3" ry="3" style="stroke: #038048; stroke-width: 1.0;"/><text fill="#000000" font-family="sans-serif" font-size="11" lengthAdjust="spacingAndGlyphs" textLength="40" x="1163.5" y="447.7227">value: T</text><line style="stroke: #A80036; stroke-width: 1.5;" x1="1144.5" x2="1281.5" y1="454.9457" y2="454.9457"/><!--MD5=[ad25acd1e3d83555cacdeb22b0286c36]
class FormData01--><rect fill="#FEFECE" filter="url(#f1ky9rriz17va6)" height="107.9276" id="FormData01" style="stroke: #A80036; stroke-width: 1.5;" width="209" x="833.5" y="542"/><ellipse cx="898.75" cy="558" fill="#ADD1B2" rx="11" ry="11" style="stroke: #A80036; stroke-width: 1.0;"/><path d="M901.7188,563.6406 Q901.1406,563.9375 900.5,564.0781 Q899.8594,564.2344 899.1563,564.2344 Q896.6563,564.2344 895.3281,562.5938 Q894.0156,560.9375 894.0156,557.8125 Q894.0156,554.6875 895.3281,553.0313 Q896.6563,551.375 899.1563,551.375 Q899.8594,551.375 900.5,551.5313 Q901.1563,551.6875 901.7188,551.9844 L901.7188,554.7031 Q901.0938,554.125 900.5,553.8594 Q899.9063,553.5781 899.2813,553.5781 Q897.9375,553.5781 897.25,554.6563 Q896.5625,555.7188 896.5625,557.8125 Q896.5625,559.9063 897.25,560.9844 Q897.9375,562.0469 899.2813,562.0469 Q899.9063,562.0469 900.5,561.7813 Q901.0938,561.5 901.7188,560.9219 L901.7188,563.6406 Z "/><text fill="#000000" font-family="sans-serif" font-size="12" lengthAdjust="spacingAndGlyphs" textLength="70" x="919.25" y="562.656">FormData01</text><line style="stroke: #A80036; stroke-width: 1.5;" x1="834.5" x2="1041.5" y1="574" y2="574"/><ellipse cx="844.5" cy="585" fill="none" rx="3" ry="3" style="stroke: #038048; stroke-width: 1.0;"/><text fill="#000000" font-family="sans-serif" font-size="11" lengthAdjust="spacingAndGlyphs" textLength="66" x="853.5" y="589.7589">name: string</text><ellipse cx="844.5" cy="599.9819" fill="none" rx="3" ry="3" style="stroke: #038048; stroke-width: 1.0;"/><text fill="#000000" font-family="sans-serif" font-size="11" lengthAdjust="spacingAndGlyphs" textLength="65" x="853.5" y="604.7408">email: string</text><ellipse cx="844.5" cy="614.9638" fill="none" rx="3" ry="3" style="stroke: #038048; stroke-width: 1.0;"/><text fill="#000000" font-family="sans-serif" font-size="11" lengthAdjust="spacingAndGlyphs" textLength="183" x="853.5" y="619.7227">obligorObligations: ObligorEntry[]</text><ellipse cx="844.5" cy="629.9457" fill="none" rx="3" ry="3" style="stroke: #038048; stroke-width: 1.0;"/><text fill="#000000" font-family="sans-serif" font-size="11" lengthAdjust="spacingAndGlyphs" textLength="180" x="853.5" y="634.7046">accontCredits: AccontCreditEntry[]</text><line style="stroke: #A80036; stroke-width: 1.5;" x1="834.5" x2="1041.5" y1="641.9276" y2="641.9276"/><!--MD5=[533c5081f8a652a4f22928a97a9a2856]
class ObligorEntry--><rect fill="#FEFECE" filter="url(#f1ky9rriz17va6)" height="77.9638" id="ObligorEntry" style="stroke: #A80036; stroke-width: 1.5;" width="117" x="856.5" y="729"/><ellipse cx="878.25" cy="745" fill="#ADD1B2" rx="11" ry="11" style="stroke: #A80036; stroke-width: 1.0;"/><path d="M881.2188,750.6406 Q880.6406,750.9375 880,751.0781 Q879.3594,751.2344 878.6563,751.2344 Q876.1563,751.2344 874.8281,749.5938 Q873.5156,747.9375 873.5156,744.8125 Q873.5156,741.6875 874.8281,740.0313 Q876.1563,738.375 878.6563,738.375 Q879.3594,738.375 880,738.5313 Q880.6563,738.6875 881.2188,738.9844 L881.2188,741.7031 Q880.5938,741.125 880,740.8594 Q879.4063,740.5781 878.7813,740.5781 Q877.4375,740.5781 876.75,741.6563 Q876.0625,742.7188 876.0625,744.8125 Q876.0625,746.9063 876.75,747.9844 Q877.4375,749.0469 878.7813,749.0469 Q879.4063,749.0469 880,748.7813 Q880.5938,748.5 881.2188,747.9219 L881.2188,750.6406 Z "/><text fill="#000000" font-family="sans-serif" font-size="12" lengthAdjust="spacingAndGlyphs" textLength="70" x="893.75" y="749.656">ObligorEntry</text><line style="stroke: #A80036; stroke-width: 1.5;" x1="857.5" x2="972.5" y1="761" y2="761"/><ellipse cx="867.5" cy="772" fill="none" rx="3" ry="3" style="stroke: #038048; stroke-width: 1.0;"/><text fill="#000000" font-family="sans-serif" font-size="11" lengthAdjust="spacingAndGlyphs" textLength="76" x="876.5" y="776.7589">obligor: string</text><ellipse cx="867.5" cy="786.9819" fill="none" rx="3" ry="3" style="stroke: #038048; stroke-width: 1.0;"/><text fill="#000000" font-family="sans-serif" font-size="11" lengthAdjust="spacingAndGlyphs" textLength="91" x="876.5" y="791.7408">obligation: string</text><line style="stroke: #A80036; stroke-width: 1.5;" x1="857.5" x2="972.5" y1="798.9638" y2="798.9638"/><!--MD5=[9b7f2c448ae348bbf2d0637af63a047a]
class AccontCreditEntry--><rect fill="#FEFECE" filter="url(#f1ky9rriz17va6)" height="77.9638" id="AccontCreditEntry" style="stroke: #A80036; stroke-width: 1.5;" width="147" x="1008.5" y="729"/><ellipse cx="1029.8" cy="745" fill="#ADD1B2" rx="11" ry="11" style="stroke: #A80036; stroke-width: 1.0;"/><path d="M1032.7688,750.6406 Q1032.1906,750.9375 1031.55,751.0781 Q1030.9094,751.2344 1030.2063,751.2344 Q1027.7063,751.2344 1026.3781,749.5938 Q1025.0656,747.9375 1025.0656,744.8125 Q1025.0656,741.6875 1026.3781,740.0313 Q1027.7063,738.375 1030.2063,738.375 Q1030.9094,738.375 1031.55,738.5313 Q1032.2063,738.6875 1032.7688,738.9844 L1032.7688,741.7031 Q1032.1438,741.125 1031.55,740.8594 Q1030.9563,740.5781 1030.3313,740.5781 Q1028.9875,740.5781 1028.3,741.6563 Q1027.6125,742.7188 1027.6125,744.8125 Q1027.6125,746.9063 1028.3,747.9844 Q1028.9875,749.0469 1030.3313,749.0469 Q1030.9563,749.0469 1031.55,748.7813 Q1032.1438,748.5 1032.7688,747.9219 L1032.7688,750.6406 Z "/><text fill="#000000" font-family="sans-serif" font-size="12" lengthAdjust="spacingAndGlyphs" textLength="101" x="1045.2" y="749.656">AccontCreditEntry</text><line style="stroke: #A80036; stroke-width: 1.5;" x1="1009.5" x2="1154.5" y1="761" y2="761"/><ellipse cx="1019.5" cy="772" fill="none" rx="3" ry="3" style="stroke: #038048; stroke-width: 1.0;"/><text fill="#000000" font-family="sans-serif" font-size="11" lengthAdjust="spacingAndGlyphs" textLength="121" x="1028.5" y="776.7589">accountNumber: string</text><ellipse cx="1019.5" cy="786.9819" fill="none" rx="3" ry="3" style="stroke: #038048; stroke-width: 1.0;"/><text fill="#000000" font-family="sans-serif" font-size="11" lengthAdjust="spacingAndGlyphs" textLength="78" x="1028.5" y="791.7408">credit: number</text><line style="stroke: #A80036; stroke-width: 1.5;" x1="1009.5" x2="1154.5" y1="798.9638" y2="798.9638"/><!--MD5=[cf018319bc057dd4264074aa9a093933]
class SomeTypes--><rect fill="#FEFECE" filter="url(#f1ky9rriz17va6)" height="77.9638" id="SomeTypes" style="stroke: #A80036; stroke-width: 1.5;" width="97" x="1164.5" y="557"/><ellipse cx="1179.5" cy="573" fill="#EB937F" rx="11" ry="11" style="stroke: #A80036; stroke-width: 1.0;"/><path d="M1183.6094,579 L1175.8906,579 L1175.8906,566.6094 L1183.6094,566.6094 L1183.6094,568.7656 L1178.3438,568.7656 L1178.3438,571.4375 L1183.1094,571.4375 L1183.1094,573.5938 L1178.3438,573.5938 L1178.3438,576.8438 L1183.6094,576.8438 L1183.6094,579 Z "/><text fill="#000000" font-family="sans-serif" font-size="12" lengthAdjust="spacingAndGlyphs" textLength="65" x="1193.5" y="577.656">SomeTypes</text><line style="stroke: #A80036; stroke-width: 1.5;" x1="1165.5" x2="1260.5" y1="589" y2="589"/><text fill="#000000" font-family="sans-serif" font-size="11" lengthAdjust="spacingAndGlyphs" textLength="36" x="1170.5" y="604.7589">BLORB</text><text fill="#000000" font-family="sans-serif" font-size="11" lengthAdjust="spacingAndGlyphs" textLength="36" x="1170.5" y="619.7408">OTHER</text><line style="stroke: #A80036; stroke-width: 1.5;" x1="1165.5" x2="1260.5" y1="626.9638" y2="626.9638"/><!--MD5=[aca4f7ebf42cf77fd9e922bc194866a6]
class StringFields<T>--><rect fill="#FEFECE" filter="url(#f1ky9rriz17va6)" height="58.6882" id="StringFields&lt;T&gt;" style="stroke: #A80036; stroke-width: 1.5;" width="118" x="990" y="387"/><ellipse cx="1005" cy="408.3441" fill="#FFD700" rx="11" ry="11" style="stroke: #A80036; stroke-width: 1.0;"/><path d="M1005.8438,415.0941 L1003.3906,415.0941 L1003.3906,404.8441 L1000.25,404.8441 L1000.25,402.7035 L1008.9844,402.7035 L1008.9844,404.8441 L1005.8438,404.8441 L1005.8438,415.0941 Z "/><text fill="#000000" font-family="sans-serif" font-size="12" font-style="italic" lengthAdjust="spacingAndGlyphs" textLength="35" x="1044.5" y="404.8281">«type»</text><text fill="#000000" font-family="sans-serif" font-size="12" lengthAdjust="spacingAndGlyphs" textLength="86" x="1019" y="421.1722">StringFields&lt;T&gt;</text><line style="stroke: #A80036; stroke-width: 1.5;" x1="991" x2="1107" y1="429.6882" y2="429.6882"/><line style="stroke: #A80036; stroke-width: 1.5;" x1="991" x2="1107" y1="437.6882" y2="437.6882"/><!--MD5=[3f24aab021379f133759398dc63d0740]
class ObjectFields<T>--><rect fill="#FEFECE" filter="url(#f1ky9rriz17va6)" height="58.6882" id="ObjectFields&lt;T&gt;" style="stroke: #A80036; stroke-width: 1.5;" width="121" x="833.5" y="387"/><ellipse cx="848.5" cy="408.3441" fill="#FFD700" rx="11" ry="11" style="stroke: #A80036; stroke-width: 1.0;"/><path d="M849.3438,415.0941 L846.8906,415.0941 L846.8906,404.8441 L843.75,404.8441 L843.75,402.7035 L852.4844,402.7035 L852.4844,404.8441 L849.3438,404.8441 L849.3438,415.0941 Z "/><text fill="#000000" font-family="sans-serif" font-size="12" font-style="italic" lengthAdjust="spacingAndGlyphs" textLength="35" x="889.5" y="404.8281">«type»</text><text fill="#000000" font-family="sans-serif" font-size="12" lengthAdjust="spacingAndGlyphs" textLength="89" x="862.5" y="421.1722">ObjectFields&lt;T&gt;</text><line style="stroke: #A80036; stroke-width: 1.5;" x1="834.5" x2="953.5" y1="429.6882" y2="429.6882"/><line style="stroke: #A80036; stroke-width: 1.5;" x1="834.5" x2="953.5" y1="437.6882" y2="437.6882"/><!--MD5=[9cd2e8dcdb774a4c283891731bf97713]
class formData01Shape--><rect fill="#FEFECE" filter="url(#f1ky9rriz17va6)" height="58.6882" id="formData01Shape" style="stroke: #A80036; stroke-width: 1.5;" width="135" x="362.5" y="387"/><ellipse cx="377.5" cy="408.3441" fill="#AAFFAA" rx="11" ry="11" style="stroke: #A80036; stroke-width: 1.0;"/><path d="M377.6094,403.9222 Q376.6719,403.9222 376.2344,404.9222 Q375.8125,405.9222 375.8125,408.1566 Q375.8125,410.391 376.2344,411.391 Q376.6719,412.391 377.6094,412.391 Q378.5625,412.391 378.9844,411.391 Q379.4219,410.391 379.4219,408.1566 Q379.4219,405.9222 378.9844,404.9222 Q378.5625,403.9222 377.6094,403.9222 Z M373.2656,408.1566 Q373.2656,404.9847 374.3594,403.3597 Q375.4688,401.7191 377.6094,401.7191 Q379.7656,401.7191 380.8594,403.3597 Q381.9688,404.9847 381.9688,408.1566 Q381.9688,411.3285 380.8594,412.9535 Q379.7656,414.5785 377.6094,414.5785 Q375.4688,414.5785 374.3594,412.9535 Q373.2656,411.3285 373.2656,408.1566 Z "/><text fill="#000000" font-family="sans-serif" font-size="12" font-style="italic" lengthAdjust="spacingAndGlyphs" textLength="40" x="423" y="404.8281">«const»</text><text fill="#000000" font-family="sans-serif" font-size="12" lengthAdjust="spacingAndGlyphs" textLength="103" x="391.5" y="421.1722">formData01Shape</text><line style="stroke: #A80036; stroke-width: 1.5;" x1="363.5" x2="496.5" y1="429.6882" y2="429.6882"/><line style="stroke: #A80036; stroke-width: 1.5;" x1="363.5" x2="496.5" y1="437.6882" y2="437.6882"/><!--MD5=[3d8492e08379897261c645c65c335405]
class example--><rect fill="#FEFECE" filter="url(#f1ky9rriz17va6)" height="58.6882" id="example" style="stroke: #A80036; stroke-width: 1.5;" width="80" x="38" y="206"/><ellipse cx="53" cy="227.3441" fill="#AAFFAA" rx="11" ry="11" style="stroke: #A80036; stroke-width: 1.0;"/><path d="M53.1094,222.9222 Q52.1719,222.9222 51.7344,223.9222 Q51.3125,224.9222 51.3125,227.1566 Q51.3125,229.391 51.7344,230.391 Q52.1719,231.391 53.1094,231.391 Q54.0625,231.391 54.4844,230.391 Q54.9219,229.391 54.9219,227.1566 Q54.9219,224.9222 54.4844,223.9222 Q54.0625,222.9222 53.1094,222.9222 Z M48.7656,227.1566 Q48.7656,223.9847 49.8594,222.3597 Q50.9688,220.7191 53.1094,220.7191 Q55.2656,220.7191 56.3594,222.3597 Q57.4688,223.9847 57.4688,227.1566 Q57.4688,230.3285 56.3594,231.9535 Q55.2656,233.5785 53.1094,233.5785 Q50.9688,233.5785 49.8594,231.9535 Q48.7656,230.3285 48.7656,227.1566 Z "/><text fill="#000000" font-family="sans-serif" font-size="12" font-style="italic" lengthAdjust="spacingAndGlyphs" textLength="40" x="71" y="223.8281">«const»</text><text fill="#000000" font-family="sans-serif" font-size="12" lengthAdjust="spacingAndGlyphs" textLength="48" x="67" y="240.1722">example</text><line style="stroke: #A80036; stroke-width: 1.5;" x1="39" x2="117" y1="248.6882" y2="248.6882"/><line style="stroke: #A80036; stroke-width: 1.5;" x1="39" x2="117" y1="256.6882" y2="256.6882"/><!--MD5=[d51b3d919fcd44674471bdef99d37135]
class formData01StringKeys--><rect fill="#FEFECE" filter="url(#f1ky9rriz17va6)" height="58.6882" id="formData01StringKeys" style="stroke: #A80036; stroke-width: 1.5;" width="159" x="350.5" y="206"/><ellipse cx="365.5" cy="227.3441" fill="#AAFFAA" rx="11" ry="11" style="stroke: #A80036; stroke-width: 1.0;"/><path d="M365.6094,222.9222 Q364.6719,222.9222 364.2344,223.9222 Q363.8125,224.9222 363.8125,227.1566 Q363.8125,229.391 364.2344,230.391 Q364.6719,231.391 365.6094,231.391 Q366.5625,231.391 366.9844,230.391 Q367.4219,229.391 367.4219,227.1566 Q367.4219,224.9222 366.9844,223.9222 Q366.5625,222.9222 365.6094,222.9222 Z M361.2656,227.1566 Q361.2656,223.9847 362.3594,222.3597 Q363.4688,220.7191 365.6094,220.7191 Q367.7656,220.7191 368.8594,222.3597 Q369.9688,223.9847 369.9688,227.1566 Q369.9688,230.3285 368.8594,231.9535 Q367.7656,233.5785 365.6094,233.5785 Q363.4688,233.5785 362.3594,231.9535 Q361.2656,230.3285 361.2656,227.1566 Z "/><text fill="#000000" font-family="sans-serif" font-size="12" font-style="italic" lengthAdjust="spacingAndGlyphs" textLength="40" x="423" y="223.8281">«const»</text><text fill="#000000" font-family="sans-serif" font-size="12" lengthAdjust="spacingAndGlyphs" textLength="127" x="379.5" y="240.1722">formData01StringKeys</text><line style="stroke: #A80036; stroke-width: 1.5;" x1="351.5" x2="508.5" y1="248.6882" y2="248.6882"/><line style="stroke: #A80036; stroke-width: 1.5;" x1="351.5" x2="508.5" y1="256.6882" y2="256.6882"/><!--MD5=[920dabb3db6d4737c753bae4792d194b]
class formData01ObjectKeys--><rect fill="#FEFECE" filter="url(#f1ky9rriz17va6)" height="58.6882" id="formData01ObjectKeys" style="stroke: #A80036; stroke-width: 1.5;" width="162" x="153" y="206"/><ellipse cx="168" cy="227.3441" fill="#AAFFAA" rx="11" ry="11" style="stroke: #A80036; stroke-width: 1.0;"/><path d="M168.1094,222.9222 Q167.1719,222.9222 166.7344,223.9222 Q166.3125,224.9222 166.3125,227.1566 Q166.3125,229.391 166.7344,230.391 Q167.1719,231.391 168.1094,231.391 Q169.0625,231.391 169.4844,230.391 Q169.9219,229.391 169.9219,227.1566 Q169.9219,224.9222 169.4844,223.9222 Q169.0625,222.9222 168.1094,222.9222 Z M163.7656,227.1566 Q163.7656,223.9847 164.8594,222.3597 Q165.9688,220.7191 168.1094,220.7191 Q170.2656,220.7191 171.3594,222.3597 Q172.4688,223.9847 172.4688,227.1566 Q172.4688,230.3285 171.3594,231.9535 Q170.2656,233.5785 168.1094,233.5785 Q165.9688,233.5785 164.8594,231.9535 Q163.7656,230.3285 163.7656,227.1566 Z "/><text fill="#000000" font-family="sans-serif" font-size="12" font-style="italic" lengthAdjust="spacingAndGlyphs" textLength="40" x="227" y="223.8281">«const»</text><text fill="#000000" font-family="sans-serif" font-size="12" lengthAdjust="spacingAndGlyphs" textLength="130" x="182" y="240.1722">formData01ObjectKeys</text><line style="stroke: #A80036; stroke-width: 1.5;" x1="154" x2="314" y1="248.6882" y2="248.6882"/><line style="stroke: #A80036; stroke-width: 1.5;" x1="154" x2="314" y1="256.6882" y2="256.6882"/><!--MD5=[127f90e070b35e17b9694cf1dad3e5dd]
class toFriendlyLabel--><rect fill="#FEFECE" filter="url(#f1ky9rriz17va6)" height="58.6882" id="toFriendlyLabel" style="stroke: #A80036; stroke-width: 1.5;" width="117" x="654.5" y="206"/><ellipse cx="669.5" cy="227.3441" fill="#FFAAAA" rx="11" ry="11" style="stroke: #A80036; stroke-width: 1.0;"/><path d="M673.7344,223.1097 L668.4531,223.1097 L668.4531,225.7816 L673.25,225.7816 L673.25,227.9379 L668.4531,227.9379 L668.4531,233.3441 L666.0156,233.3441 L666.0156,220.9535 L673.7344,220.9535 L673.7344,223.1097 Z "/><text fill="#000000" font-family="sans-serif" font-size="12" font-style="italic" lengthAdjust="spacingAndGlyphs" textLength="23" x="714.5" y="223.8281">«fn»</text><text fill="#000000" font-family="sans-serif" font-size="12" lengthAdjust="spacingAndGlyphs" textLength="85" x="683.5" y="240.1722">toFriendlyLabel</text><line style="stroke: #A80036; stroke-width: 1.5;" x1="655.5" x2="770.5" y1="248.6882" y2="248.6882"/><line style="stroke: #A80036; stroke-width: 1.5;" x1="655.5" x2="770.5" y1="256.6882" y2="256.6882"/><!--MD5=[cddf1fe0380d2ea625b1605056ad3100]
class toStringMetadata--><rect fill="#FEFECE" filter="url(#f1ky9rriz17va6)" height="58.6882" id="toStringMetadata" style="stroke: #A80036; stroke-width: 1.5;" width="130" x="989" y="62"/><ellipse cx="1004" cy="83.3441" fill="#FFAAAA" rx="11" ry="11" style="stroke: #A80036; stroke-width: 1.0;"/><path d="M1008.2344,79.1097 L1002.9531,79.1097 L1002.9531,81.7816 L1007.75,81.7816 L1007.75,83.9379 L1002.9531,83.9379 L1002.9531,89.3441 L1000.5156,89.3441 L1000.5156,76.9535 L1008.2344,76.9535 L1008.2344,79.1097 Z "/><text fill="#000000" font-family="sans-serif" font-size="12" font-style="italic" lengthAdjust="spacingAndGlyphs" textLength="23" x="1055.5" y="79.8281">«fn»</text><text fill="#000000" font-family="sans-serif" font-size="12" lengthAdjust="spacingAndGlyphs" textLength="98" x="1018" y="96.1722">toStringMetadata</text><line style="stroke: #A80036; stroke-width: 1.5;" x1="990" x2="1118" y1="104.6882" y2="104.6882"/><line style="stroke: #A80036; stroke-width: 1.5;" x1="990" x2="1118" y1="112.6882" y2="112.6882"/><!--MD5=[605bed2cb43750037e7859e86bb6466e]
class toObjectMetadata--><rect fill="#FEFECE" filter="url(#f1ky9rriz17va6)" height="58.6882" id="toObjectMetadata" style="stroke: #A80036; stroke-width: 1.5;" width="133" x="1154.5" y="62"/><ellipse cx="1169.5" cy="83.3441" fill="#FFAAAA" rx="11" ry="11" style="stroke: #A80036; stroke-width: 1.0;"/><path d="M1173.7344,79.1097 L1168.4531,79.1097 L1168.4531,81.7816 L1173.25,81.7816 L1173.25,83.9379 L1168.4531,83.9379 L1168.4531,89.3441 L1166.0156,89.3441 L1166.0156,76.9535 L1173.7344,76.9535 L1173.7344,79.1097 Z "/><text fill="#000000" font-family="sans-serif" font-size="12" font-style="italic" lengthAdjust="spacingAndGlyphs" textLength="23" x="1222.5" y="79.8281">«fn»</text><text fill="#000000" font-family="sans-serif" font-size="12" lengthAdjust="spacingAndGlyphs" textLength="101" x="1183.5" y="96.1722">toObjectMetadata</text><line style="stroke: #A80036; stroke-width: 1.5;" x1="1155.5" x2="1286.5" y1="104.6882" y2="104.6882"/><line style="stroke: #A80036; stroke-width: 1.5;" x1="1155.5" x2="1286.5" y1="112.6882" y2="112.6882"/><!--MD5=[fd24a842bc4190a6cb449c978942b9a0]
class extractStringFields--><rect fill="#FEFECE" filter="url(#f1ky9rriz17va6)" height="58.6882" id="extractStringFields" style="stroke: #A80036; stroke-width: 1.5;" width="136" x="818" y="62"/><ellipse cx="833" cy="83.3441" fill="#FFAAAA" rx="11" ry="11" style="stroke: #A80036; stroke-width: 1.0;"/><path d="M837.2344,79.1097 L831.9531,79.1097 L831.9531,81.7816 L836.75,81.7816 L836.75,83.9379 L831.9531,83.9379 L831.9531,89.3441 L829.5156,89.3441 L829.5156,76.9535 L837.2344,76.9535 L837.2344,79.1097 Z "/><text fill="#000000" font-family="sans-serif" font-size="12" font-style="italic" lengthAdjust="spacingAndGlyphs" textLength="23" x="887.5" y="79.8281">«fn»</text><text fill="#000000" font-family="sans-serif" font-size="12" lengthAdjust="spacingAndGlyphs" textLength="104" x="847" y="96.1722">extractStringFields</text><line style="stroke: #A80036; stroke-width: 1.5;" x1="819" x2="953" y1="104.6882" y2="104.6882"/><line style="stroke: #A80036; stroke-width: 1.5;" x1="819" x2="953" y1="112.6882" y2="112.6882"/><!--MD5=[ab2184108395a80351c712f022175b8d]
class extractObjectFields--><rect fill="#FEFECE" filter="url(#f1ky9rriz17va6)" height="58.6882" id="extractObjectFields" style="stroke: #A80036; stroke-width: 1.5;" width="139" x="643.5" y="62"/><ellipse cx="658.5" cy="83.3441" fill="#FFAAAA" rx="11" ry="11" style="stroke: #A80036; stroke-width: 1.0;"/><path d="M662.7344,79.1097 L657.4531,79.1097 L657.4531,81.7816 L662.25,81.7816 L662.25,83.9379 L657.4531,83.9379 L657.4531,89.3441 L655.0156,89.3441 L655.0156,76.9535 L662.7344,76.9535 L662.7344,79.1097 Z "/><text fill="#000000" font-family="sans-serif" font-size="12" font-style="italic" lengthAdjust="spacingAndGlyphs" textLength="23" x="714.5" y="79.8281">«fn»</text><text fill="#000000" font-family="sans-serif" font-size="12" lengthAdjust="spacingAndGlyphs" textLength="107" x="672.5" y="96.1722">extractObjectFields</text><line style="stroke: #A80036; stroke-width: 1.5;" x1="644.5" x2="781.5" y1="104.6882" y2="104.6882"/><line style="stroke: #A80036; stroke-width: 1.5;" x1="644.5" x2="781.5" y1="112.6882" y2="112.6882"/><!--MD5=[fc27f09bcf6ed43c4fb94b44f33db898]
reverse link FormData01 to ObligorEntry--><path d="M923.59,663.4 C922.62,669 921.74,674.59 921,680 C918.83,695.9 917.43,713.55 916.53,728.77 " fill="none" id="FormData01&lt;-ObligorEntry" style="stroke: #A80036; stroke-width: 1.0;"/><polygon fill="#A80036" points="925.97,650.4,920.9485,655.5754,923.7944,662.2011,928.8159,657.0258,925.97,650.4" style="stroke: #A80036; stroke-width: 1.0;"/><text fill="#000000" font-family="sans-serif" font-size="13" lengthAdjust="spacingAndGlyphs" textLength="112" x="922" y="694.897">obligorObligations</text><!--MD5=[f5bc47d72b9fdedf5a76f4fd2c3c51fd]
reverse link FormData01 to AccontCreditEntry--><path d="M1020.5,659.55 C1027.12,666.1 1033.41,672.95 1039,680 C1050.63,694.65 1060.26,712.95 1067.43,728.98 " fill="none" id="FormData01&lt;-AccontCreditEntry" style="stroke: #A80036; stroke-width: 1.0;"/><polygon fill="#A80036" points="1010.59,650.17,1012.2015,657.1987,1019.3094,658.4145,1017.6979,651.3858,1010.59,650.17" style="stroke: #A80036; stroke-width: 1.0;"/><text fill="#000000" font-family="sans-serif" font-size="13" lengthAdjust="spacingAndGlyphs" textLength="82" x="1052" y="694.897">accontCredits</text><!--MD5=[2cbff4370b651274d982095cbdc4cd39]
link Metadata<T> to SomeTypes--><path d="M1213,463.21 C1213,490.46 1213,524.86 1213,551.68 " fill="none" id="Metadata&lt;T&gt;-&gt;SomeTypes" style="stroke: #A80036; stroke-width: 1.0;"/><polygon fill="#A80036" points="1213,556.94,1217,547.94,1213,551.94,1209,547.94,1213,556.94" style="stroke: #A80036; stroke-width: 1.0;"/><text fill="#000000" font-family="sans-serif" font-size="13" lengthAdjust="spacingAndGlyphs" textLength="56" x="1214" y="507.897">dataType</text><!--MD5=[6745e4ba5185267c6a715eef4882c520]
link StringFields<T> to FormData01--><path d="M1033.3,446.4 C1022.84,465.3 1008.56,490.39 995,512 C989.73,520.4 984,529.15 978.26,537.68 " fill="none" id="StringFields&lt;T&gt;-&gt;FormData01" style="stroke: #A80036; stroke-width: 1.0; stroke-dasharray: 7.0,7.0;"/><polygon fill="#A80036" points="975.45,541.85,983.8037,536.6332,978.2498,537.7074,977.1756,532.1535,975.45,541.85" style="stroke: #A80036; stroke-width: 1.0;"/><text fill="#000000" font-family="sans-serif" font-size="13" lengthAdjust="spacingAndGlyphs" textLength="80" x="1006" y="507.897">string keys of</text><!--MD5=[4c7975f76d035be80abf0547ab25171d]
link ObjectFields<T> to FormData01--><path d="M896.3,446.35 C898.22,465.23 901.53,490.32 907,512 C909.06,520.15 911.65,528.61 914.45,536.86 " fill="none" id="ObjectFields&lt;T&gt;-&gt;FormData01" style="stroke: #A80036; stroke-width: 1.0; stroke-dasharray: 7.0,7.0;"/><polygon fill="#A80036" points="916.22,541.97,917.0712,532.158,914.5918,537.2425,909.5073,534.7631,916.22,541.97" style="stroke: #A80036; stroke-width: 1.0;"/><text fill="#000000" font-family="sans-serif" font-size="13" lengthAdjust="spacingAndGlyphs" textLength="82" x="908" y="507.897">object keys of</text><!--MD5=[01248bb52f060853ee16ee92ef69f0c7]
link formData01Shape to FormData01--><path d="M491.56,446.12 C509.88,454.24 530.11,462.82 549,470 C636.38,503.21 736.88,535.35 813.83,558.73 " fill="none" id="formData01Shape-&gt;FormData01" style="stroke: #A80036; stroke-width: 1.0; stroke-dasharray: 7.0,7.0;"/><polygon fill="none" points="816.25,552.14,833.37,564.63,812.2,565.54,816.25,552.14" style="stroke: #A80036; stroke-width: 1.0;"/><!--MD5=[c99f0cdf48db7702e2c8075c2acec472]
link example to FormData01--><path d="M101.52,265.1 C144.36,315.16 240.41,418.24 345,470 C495.62,544.54 689.15,574.73 813.4,586.89 " fill="none" id="example-&gt;FormData01" style="stroke: #A80036; stroke-width: 1.0; stroke-dasharray: 7.0,7.0;"/><polygon fill="none" points="814.22,579.94,833.49,588.76,812.92,593.88,814.22,579.94" style="stroke: #A80036; stroke-width: 1.0;"/><!--MD5=[aa06ecb845bc3bfa84cfbdddec57a8cb]
link formData01StringKeys to formData01Shape--><path d="M430,265.26 C430,296.97 430,347.93 430,381.57 " fill="none" id="formData01StringKeys-&gt;formData01Shape" style="stroke: #A80036; stroke-width: 1.0;"/><polygon fill="#A80036" points="430,386.81,434,377.81,430,381.81,426,377.81,430,386.81" style="stroke: #A80036; stroke-width: 1.0;"/><text fill="#000000" font-family="sans-serif" font-size="13" lengthAdjust="spacingAndGlyphs" textLength="67" x="431" y="311.897">keys + filter</text><!--MD5=[e69c11723d535908b69ebaf6579d46a5]
link formData01ObjectKeys to formData01Shape--><path d="M265.49,265.26 C300.78,297.49 357.86,349.61 394.65,383.21 " fill="none" id="formData01ObjectKeys-&gt;formData01Shape" style="stroke: #A80036; stroke-width: 1.0;"/><polygon fill="#A80036" points="398.59,386.81,394.649,377.784,394.9007,383.4353,389.2494,383.6869,398.59,386.81" style="stroke: #A80036; stroke-width: 1.0;"/><text fill="#000000" font-family="sans-serif" font-size="13" lengthAdjust="spacingAndGlyphs" textLength="67" x="322" y="311.897">keys + filter</text><!--MD5=[f042a587ce0bbff51376f5ea8b5fd055]
link toFriendlyLabel to capitalCase--><path d="M715.57,265.26 C718.4,296.97 722.96,347.93 725.97,381.57 " fill="none" id="toFriendlyLabel-&gt;capitalCase" style="stroke: #A80036; stroke-width: 1.0;"/><polygon fill="#A80036" points="726.44,386.81,729.6257,377.4906,725.9964,381.8297,721.6572,378.2004,726.44,386.81" style="stroke: #A80036; stroke-width: 1.0;"/><!--MD5=[1a1b4f093ce09f094d8393d79c548217]
link toStringMetadata to Metadata<T>--><path d="M1111.88,121.07 C1127.62,131.36 1143.27,144.38 1154,160 C1196.46,221.79 1208.7,309.82 1212.04,364.76 " fill="none" id="toStringMetadata-&gt;Metadata&lt;T&gt;" style="stroke: #A80036; stroke-width: 1.0; stroke-dasharray: 7.0,7.0;"/><polygon fill="#A80036" points="1212.34,369.97,1215.8448,360.7659,1212.0682,364.9774,1207.8567,361.2008,1212.34,369.97" style="stroke: #A80036; stroke-width: 1.0;"/><text fill="#000000" font-family="sans-serif" font-size="13" lengthAdjust="spacingAndGlyphs" textLength="107" x="1203" y="240.897">Metadata&lt;string&gt;</text><!--MD5=[da646cc7f95af514637983c15de98d18]
link toObjectMetadata to Metadata<T>--><path d="M1287.65,117.89 C1305.56,128.13 1322.78,141.91 1333,160 C1361.2,209.92 1354.24,235.75 1333,289 C1321.23,318.5 1298.95,345.07 1276.75,366.16 " fill="none" id="toObjectMetadata-&gt;Metadata&lt;T&gt;" style="stroke: #A80036; stroke-width: 1.0; stroke-dasharray: 7.0,7.0;"/><polygon fill="#A80036" points="1272.9,369.76,1282.202,366.5239,1276.5481,366.3408,1276.7313,360.6869,1272.9,369.76" style="stroke: #A80036; stroke-width: 1.0;"/><text fill="#000000" font-family="sans-serif" font-size="13" lengthAdjust="spacingAndGlyphs" textLength="79" x="1352" y="240.897">Metadata&lt;T&gt;</text><!--MD5=[34a5f480d218eed545834a17ff12f20a]
link extractStringFields to formData01StringKeys--><path d="M817.65,115.82 C811.7,117.65 805.76,119.4 800,121 C724.06,142.09 702.49,137.34 627,160 C585.44,172.48 540.08,189.39 503.37,203.96 " fill="none" id="extractStringFields-&gt;formData01StringKeys" style="stroke: #A80036; stroke-width: 1.0;"/><polygon fill="#A80036" points="498.48,205.9,508.3208,206.2975,503.1273,204.0554,505.3694,198.8618,498.48,205.9" style="stroke: #A80036; stroke-width: 1.0;"/><!--MD5=[d0c81cf2e5cdf2d0a214304898867df3]
link extractStringFields to toFriendlyLabel--><path d="M847.97,121.3 C832.61,133.11 814.82,147.03 799,160 C782.38,173.63 764.36,189.12 749.13,202.44 " fill="none" id="extractStringFields-&gt;toFriendlyLabel" style="stroke: #A80036; stroke-width: 1.0;"/><polygon fill="#A80036" points="745.32,205.78,754.728,202.8663,749.0838,202.4885,749.4616,196.8443,745.32,205.78" style="stroke: #A80036; stroke-width: 1.0;"/><!--MD5=[ede94b90443314dbc331017eca8c2012]
link extractStringFields to Metadata<T>--><path d="M927.04,121.06 C940.93,132.1 955.75,145.56 967,160 C1006.1,210.17 981.79,246.37 1029,289 C1063.01,319.72 1087.62,298.94 1126,324 C1143.43,335.38 1159.9,350.91 1173.72,365.94 " fill="none" id="extractStringFields-&gt;Metadata&lt;T&gt;" style="stroke: #A80036; stroke-width: 1.0; stroke-dasharray: 7.0,7.0;"/><polygon fill="#A80036" points="1177.18,369.74,1174.0947,360.3869,1173.8202,366.0371,1168.17,365.7626,1177.18,369.74" style="stroke: #A80036; stroke-width: 1.0;"/><text fill="#000000" font-family="sans-serif" font-size="13" lengthAdjust="spacingAndGlyphs" textLength="115" x="1030" y="240.897">Metadata&lt;string&gt;[]</text><!--MD5=[ec3f334885fbd8fd910ff2cab883d593]
link extractObjectFields to formData01ObjectKeys--><path d="M643.29,95.18 C564.88,100.37 435.14,115.55 333,160 C309.35,170.29 286.13,187.29 268.13,202.46 " fill="none" id="extractObjectFields-&gt;formData01ObjectKeys" style="stroke: #A80036; stroke-width: 1.0;"/><polygon fill="#A80036" points="264.13,205.86,273.5726,203.0604,267.9333,202.6143,268.3794,196.9751,264.13,205.86" style="stroke: #A80036; stroke-width: 1.0;"/><!--MD5=[640d3168dcdd0b4c96454a78b945dae1]
link extractObjectFields to toFriendlyLabel--><path d="M713,121.24 C713,144.24 713,176.54 713,200.77 " fill="none" id="extractObjectFields-&gt;toFriendlyLabel" style="stroke: #A80036; stroke-width: 1.0;"/><polygon fill="#A80036" points="713,205.81,717,196.81,713,200.81,709,196.81,713,205.81" style="stroke: #A80036; stroke-width: 1.0;"/><!--MD5=[4d35a9f9aa3934dd680f8e5d268c6ece]
link extractObjectFields to pluralize--><path d="M670.3,121.08 C657.55,131.77 644.89,145.01 637,160 C599.15,231.9 598.92,330.5 601.96,381.64 " fill="none" id="extractObjectFields-&gt;pluralize" style="stroke: #A80036; stroke-width: 1.0;"/><polygon fill="#A80036" points="602.29,386.74,605.7175,377.5068,601.9763,381.7498,597.7333,378.0087,602.29,386.74" style="stroke: #A80036; stroke-width: 1.0;"/><!--MD5=[3330e6f9a95241682959a76c08fb55f8]
link extractObjectFields to Metadata<T>--><path d="M751.89,121.12 C764.96,132.16 778.79,145.61 789,160 C824.87,210.55 793.07,250.94 842,289 C909.32,341.37 947.25,306.38 1032,316 C1052.83,318.36 1107.1,314.92 1126,324 C1145.85,333.54 1163.53,349.68 1177.67,365.78 " fill="none" id="extractObjectFields-&gt;Metadata&lt;T&gt;" style="stroke: #A80036; stroke-width: 1.0; stroke-dasharray: 7.0,7.0;"/><polygon fill="#A80036" points="1181.19,369.87,1178.3523,360.4388,1177.929,366.0798,1172.288,365.6564,1181.19,369.87" style="stroke: #A80036; stroke-width: 1.0;"/><text fill="#000000" font-family="sans-serif" font-size="13" lengthAdjust="spacingAndGlyphs" textLength="115" x="843" y="240.897">Metadata&lt;string&gt;[]</text><!--MD5=[23053bd29dd5f908d2299e2c3bd8fa1f]
@startuml

skinparam packageStyle rectangle

package "npm" {
  class pluralize << (L,#AADDFF) library >>
  class capitalCase << (L,#AADDFF) library >>
}

package "types" {
  class "Metadata<T>" {
    + name: string
    + dataType: SomeTypes
    + value: T
  }

  class FormData01 {
    + name: string
    + email: string
    + obligorObligations: ObligorEntry[]
    + accontCredits: AccontCreditEntry[]
  }

  class ObligorEntry {
    + obligor: string
    + obligation: string
  }

  class AccontCreditEntry {
    + accountNumber: string
    + credit: number
  }

  enum SomeTypes {
    BLORB
    OTHER
  }

  class "StringFields<T>" << (T,#FFD700) type >>
  class "ObjectFields<T>" << (T,#FFD700) type >>
}

package "data" {
  class formData01Shape << (O,#AAFFAA) const >>
  class example << (O,#AAFFAA) const >>
  class formData01StringKeys << (O,#AAFFAA) const >>
  class formData01ObjectKeys << (O,#AAFFAA) const >>
}

package "functions" {
  class toFriendlyLabel << (F,#FFAAAA) fn >>
  class toStringMetadata << (F,#FFAAAA) fn >>
  class toObjectMetadata << (F,#FFAAAA) fn >>
  class extractStringFields << (F,#FFAAAA) fn >>
  class extractObjectFields << (F,#FFAAAA) fn >>
}

FormData01 *- - ObligorEntry : obligorObligations
FormData01 *- - AccontCreditEntry : accontCredits
"Metadata<T>" - -> SomeTypes : dataType
"StringFields<T>" ..> FormData01 : string keys of
"ObjectFields<T>" ..> FormData01 : object keys of

formData01Shape ..|> FormData01
example ..|> FormData01
formData01StringKeys - -> formData01Shape : keys + filter
formData01ObjectKeys - -> formData01Shape : keys + filter

toFriendlyLabel - -> capitalCase
toStringMetadata ..> "Metadata<T>" : Metadata<string>
toObjectMetadata ..> "Metadata<T>" : Metadata<T>

extractStringFields - -> formData01StringKeys
extractStringFields - -> toFriendlyLabel
extractStringFields ..> "Metadata<T>" : Metadata<string>[]

extractObjectFields - -> formData01ObjectKeys
extractObjectFields - -> toFriendlyLabel
extractObjectFields - -> pluralize
extractObjectFields ..> "Metadata<T>" : Metadata<string>[]

@enduml

PlantUML version 1.2020.02(Sun Mar 01 05:22:07 EST 2020)
(GPL source distribution)
Java Runtime: OpenJDK Runtime Environment
JVM: OpenJDK 64-Bit Server VM
Java Version: 17.0.15+6-Ubuntu-0ubuntu124.10
Operating System: Linux
Default Encoding: UTF-8
Language: en
Country: US
--></g></svg>