<?xml version="1.0" encoding="UTF-8" standalone="no"?><svg xmlns="http://www.w3.org/2000/svg" xmlns:xlink="http://www.w3.org/1999/xlink" contentScriptType="application/ecmascript" contentStyleType="text/css" height="991px" preserveAspectRatio="none" style="width:1529px;height:991px;" version="1.1" viewBox="0 0 1529 991" width="1529px" zoomAndPan="magnify"><defs><filter height="300%" id="f18j2s00iycvad" width="300%" x="-1" y="-1"><feGaussianBlur result="blurOut" stdDeviation="2.0"/><feColorMatrix in="blurOut" result="blurOut2" type="matrix" values="0 0 0 0 0 0 0 0 0 0 0 0 0 0 0 0 0 0 .4 0"/><feOffset dx="4.0" dy="4.0" in="blurOut2" result="blurOut3"/><feBlend in="SourceGraphic" in2="blurOut3" mode="normal"/></filter></defs><g><!--MD5=[ee7dd9e26f447f0559e0a68b0ee6d2b3]
cluster npm--><rect fill="#FFFFFF" filter="url(#f18j2s00iycvad)" height="113" style="stroke: #000000; stroke-width: 1.5;" width="244" x="626" y="502.5"/><text fill="#000000" font-family="sans-serif" font-size="14" font-weight="bold" lengthAdjust="spacingAndGlyphs" textLength="32" x="732" y="519.4659">npm</text><!--MD5=[67cd15ce44b6dd54f77054b62c31bf42]
cluster types--><rect fill="#FFFFFF" filter="url(#f18j2s00iycvad)" height="673.5" style="stroke: #000000; stroke-width: 1.5;" width="439" x="1079" y="306.5"/><text fill="#000000" font-family="sans-serif" font-size="14" font-weight="bold" lengthAdjust="spacingAndGlyphs" textLength="38" x="1279.5" y="323.4659">types</text><!--MD5=[dce4c2b5694dd28223e7b1d160ba96c4]
cluster data--><rect fill="#FFFFFF" filter="url(#f18j2s00iycvad)" height="292" style="stroke: #000000; stroke-width: 1.5;" width="504" x="22" y="323.5"/><text fill="#000000" font-family="sans-serif" font-size="14" font-weight="bold" lengthAdjust="spacingAndGlyphs" textLength="31" x="258.5" y="340.4659">data</text><!--MD5=[9a53b195b9e6dcc8c7a5cc20ca36bc92]
cluster functions--><rect fill="#FFFFFF" filter="url(#f18j2s00iycvad)" height="412" style="stroke: #000000; stroke-width: 1.5;" width="505" x="550" y="24.5"/><text fill="#000000" font-family="sans-serif" font-size="14" font-weight="bold" lengthAdjust="spacingAndGlyphs" textLength="65" x="770" y="41.4659">functions</text><!--MD5=[31e6c6bcee0656a3e931837d3ccb9e75]
class pluralize--><rect fill="#FEFECE" filter="url(#f18j2s00iycvad)" height="58.6882" id="pluralize" style="stroke: #A80036; stroke-width: 1.5;" width="80" x="774" y="540.5"/><ellipse cx="789" cy="561.8441" fill="#AADDFF" rx="11" ry="11" style="stroke: #A80036; stroke-width: 1.0;"/><path d="M785.875,567.8441 L785.875,555.4535 L788.3125,555.4535 L788.3125,565.6879 L793.5469,565.6879 L793.5469,567.8441 L785.875,567.8441 Z "/><text fill="#000000" font-family="sans-serif" font-size="12" font-style="italic" lengthAdjust="spacingAndGlyphs" textLength="48" x="803" y="558.3281">«library»</text><text fill="#000000" font-family="sans-serif" font-size="12" lengthAdjust="spacingAndGlyphs" textLength="48" x="803" y="574.6722">pluralize</text><line style="stroke: #A80036; stroke-width: 1.5;" x1="775" x2="853" y1="583.1882" y2="583.1882"/><line style="stroke: #A80036; stroke-width: 1.5;" x1="775" x2="853" y1="591.1882" y2="591.1882"/><!--MD5=[6e9a1958762725ce636ad29a33f26a0c]
class capitalCase--><rect fill="#FEFECE" filter="url(#f18j2s00iycvad)" height="58.6882" id="capitalCase" style="stroke: #A80036; stroke-width: 1.5;" width="97" x="641.5" y="540.5"/><ellipse cx="656.5" cy="561.8441" fill="#AADDFF" rx="11" ry="11" style="stroke: #A80036; stroke-width: 1.0;"/><path d="M653.375,567.8441 L653.375,555.4535 L655.8125,555.4535 L655.8125,565.6879 L661.0469,565.6879 L661.0469,567.8441 L653.375,567.8441 Z "/><text fill="#000000" font-family="sans-serif" font-size="12" font-style="italic" lengthAdjust="spacingAndGlyphs" textLength="48" x="679" y="558.3281">«library»</text><text fill="#000000" font-family="sans-serif" font-size="12" lengthAdjust="spacingAndGlyphs" textLength="65" x="670.5" y="574.6722">capitalCase</text><line style="stroke: #A80036; stroke-width: 1.5;" x1="642.5" x2="737.5" y1="583.1882" y2="583.1882"/><line style="stroke: #A80036; stroke-width: 1.5;" x1="642.5" x2="737.5" y1="591.1882" y2="591.1882"/><!--MD5=[a722d691dd27b5fcdb7d2ece61b9041e]
class Metadata<T>--><rect fill="#FEFECE" filter="url(#f18j2s00iycvad)" height="92.9457" id="Metadata&lt;T&gt;" style="stroke: #A80036; stroke-width: 1.5;" width="139" x="1300.5" y="344.5"/><ellipse cx="1329.9" cy="360.5" fill="#ADD1B2" rx="11" ry="11" style="stroke: #A80036; stroke-width: 1.0;"/><path d="M1332.8688,366.1406 Q1332.2906,366.4375 1331.65,366.5781 Q1331.0094,366.7344 1330.3063,366.7344 Q1327.8063,366.7344 1326.4781,365.0938 Q1325.1656,363.4375 1325.1656,360.3125 Q1325.1656,357.1875 1326.4781,355.5313 Q1327.8063,353.875 1330.3063,353.875 Q1331.0094,353.875 1331.65,354.0313 Q1332.3063,354.1875 1332.8688,354.4844 L1332.8688,357.2031 Q1332.2438,356.625 1331.65,356.3594 Q1331.0563,356.0781 1330.4313,356.0781 Q1329.0875,356.0781 1328.4,357.1563 Q1327.7125,358.2188 1327.7125,360.3125 Q1327.7125,362.4063 1328.4,363.4844 Q1329.0875,364.5469 1330.4313,364.5469 Q1331.0563,364.5469 1331.65,364.2813 Q1332.2438,364 1332.8688,363.4219 L1332.8688,366.1406 Z "/><text fill="#000000" font-family="sans-serif" font-size="12" lengthAdjust="spacingAndGlyphs" textLength="75" x="1347.1" y="365.156">Metadata&lt;T&gt;</text><line style="stroke: #A80036; stroke-width: 1.5;" x1="1301.5" x2="1438.5" y1="376.5" y2="376.5"/><ellipse cx="1311.5" cy="387.5" fill="none" rx="3" ry="3" style="stroke: #038048; stroke-width: 1.0;"/><text fill="#000000" font-family="sans-serif" font-size="11" lengthAdjust="spacingAndGlyphs" textLength="66" x="1320.5" y="392.2589">name: string</text><ellipse cx="1311.5" cy="402.4819" fill="none" rx="3" ry="3" style="stroke: #038048; stroke-width: 1.0;"/><text fill="#000000" font-family="sans-serif" font-size="11" lengthAdjust="spacingAndGlyphs" textLength="113" x="1320.5" y="407.2408">dataType: SomeTypes</text><ellipse cx="1311.5" cy="417.4638" fill="none" rx="3" ry="3" style="stroke: #038048; stroke-width: 1.0;"/><text fill="#000000" font-family="sans-serif" font-size="11" lengthAdjust="spacingAndGlyphs" textLength="40" x="1320.5" y="422.2227">value: T</text><line style="stroke: #A80036; stroke-width: 1.5;" x1="1301.5" x2="1438.5" y1="429.4457" y2="429.4457"/><!--MD5=[ad25acd1e3d83555cacdeb22b0286c36]
class FormData01--><rect fill="#FEFECE" filter="url(#f18j2s00iycvad)" height="107.9276" id="FormData01" style="stroke: #A80036; stroke-width: 1.5;" width="270" x="1095" y="688"/><ellipse cx="1190.75" cy="704" fill="#ADD1B2" rx="11" ry="11" style="stroke: #A80036; stroke-width: 1.0;"/><path d="M1193.7188,709.6406 Q1193.1406,709.9375 1192.5,710.0781 Q1191.8594,710.2344 1191.1563,710.2344 Q1188.6563,710.2344 1187.3281,708.5938 Q1186.0156,706.9375 1186.0156,703.8125 Q1186.0156,700.6875 1187.3281,699.0313 Q1188.6563,697.375 1191.1563,697.375 Q1191.8594,697.375 1192.5,697.5313 Q1193.1563,697.6875 1193.7188,697.9844 L1193.7188,700.7031 Q1193.0938,700.125 1192.5,699.8594 Q1191.9063,699.5781 1191.2813,699.5781 Q1189.9375,699.5781 1189.25,700.6563 Q1188.5625,701.7188 1188.5625,703.8125 Q1188.5625,705.9063 1189.25,706.9844 Q1189.9375,708.0469 1191.2813,708.0469 Q1191.9063,708.0469 1192.5,707.7813 Q1193.0938,707.5 1193.7188,706.9219 L1193.7188,709.6406 Z "/><text fill="#000000" font-family="sans-serif" font-size="12" lengthAdjust="spacingAndGlyphs" textLength="70" x="1211.25" y="708.656">FormData01</text><line style="stroke: #A80036; stroke-width: 1.5;" x1="1096" x2="1364" y1="720" y2="720"/><ellipse cx="1106" cy="731" fill="none" rx="3" ry="3" style="stroke: #038048; stroke-width: 1.0;"/><text fill="#000000" font-family="sans-serif" font-size="11" lengthAdjust="spacingAndGlyphs" textLength="66" x="1115" y="735.7589">name: string</text><ellipse cx="1106" cy="745.9819" fill="none" rx="3" ry="3" style="stroke: #038048; stroke-width: 1.0;"/><text fill="#000000" font-family="sans-serif" font-size="11" lengthAdjust="spacingAndGlyphs" textLength="65" x="1115" y="750.7408">email: string</text><ellipse cx="1106" cy="760.9638" fill="none" rx="3" ry="3" style="stroke: #038048; stroke-width: 1.0;"/><text fill="#000000" font-family="sans-serif" font-size="11" lengthAdjust="spacingAndGlyphs" textLength="233" x="1115" y="765.7227">obligorObligations: readonly ObligorEntry[]</text><ellipse cx="1106" cy="775.9457" fill="none" rx="3" ry="3" style="stroke: #038048; stroke-width: 1.0;"/><text fill="#000000" font-family="sans-serif" font-size="11" lengthAdjust="spacingAndGlyphs" textLength="244" x="1115" y="780.7046">accountCredits: readonly AccountCreditEntry[]</text><line style="stroke: #A80036; stroke-width: 1.5;" x1="1096" x2="1364" y1="787.9276" y2="787.9276"/><!--MD5=[533c5081f8a652a4f22928a97a9a2856]
class ObligorEntry--><rect fill="#FEFECE" filter="url(#f18j2s00iycvad)" height="88.652" id="ObligorEntry" style="stroke: #A80036; stroke-width: 1.5;" width="117" x="1133.5" y="875"/><ellipse cx="1155.25" cy="896.3441" fill="#ADD1B2" rx="11" ry="11" style="stroke: #A80036; stroke-width: 1.0;"/><path d="M1158.2188,901.9847 Q1157.6406,902.2816 1157,902.4222 Q1156.3594,902.5785 1155.6563,902.5785 Q1153.1563,902.5785 1151.8281,900.9379 Q1150.5156,899.2816 1150.5156,896.1566 Q1150.5156,893.0316 1151.8281,891.3754 Q1153.1563,889.7191 1155.6563,889.7191 Q1156.3594,889.7191 1157,889.8754 Q1157.6563,890.0316 1158.2188,890.3285 L1158.2188,893.0472 Q1157.5938,892.4691 1157,892.2035 Q1156.4063,891.9222 1155.7813,891.9222 Q1154.4375,891.9222 1153.75,893.0004 Q1153.0625,894.0629 1153.0625,896.1566 Q1153.0625,898.2504 1153.75,899.3285 Q1154.4375,900.391 1155.7813,900.391 Q1156.4063,900.391 1157,900.1254 Q1157.5938,899.8441 1158.2188,899.266 L1158.2188,901.9847 Z "/><text fill="#000000" font-family="sans-serif" font-size="12" font-style="italic" lengthAdjust="spacingAndGlyphs" textLength="60" x="1175.75" y="892.8281">«readonly»</text><text fill="#000000" font-family="sans-serif" font-size="12" lengthAdjust="spacingAndGlyphs" textLength="70" x="1170.75" y="909.1722">ObligorEntry</text><line style="stroke: #A80036; stroke-width: 1.5;" x1="1134.5" x2="1249.5" y1="917.6882" y2="917.6882"/><ellipse cx="1144.5" cy="928.6882" fill="none" rx="3" ry="3" style="stroke: #038048; stroke-width: 1.0;"/><text fill="#000000" font-family="sans-serif" font-size="11" lengthAdjust="spacingAndGlyphs" textLength="76" x="1153.5" y="933.4471">obligor: string</text><ellipse cx="1144.5" cy="943.6701" fill="none" rx="3" ry="3" style="stroke: #038048; stroke-width: 1.0;"/><text fill="#000000" font-family="sans-serif" font-size="11" lengthAdjust="spacingAndGlyphs" textLength="91" x="1153.5" y="948.429">obligation: string</text><line style="stroke: #A80036; stroke-width: 1.5;" x1="1134.5" x2="1249.5" y1="955.652" y2="955.652"/><!--MD5=[af4ebf6b78c7f9ae748d6bc172a50a35]
class AccountCreditEntry--><rect fill="#FEFECE" filter="url(#f18j2s00iycvad)" height="88.652" id="AccountCreditEntry" style="stroke: #A80036; stroke-width: 1.5;" width="147" x="1285.5" y="875"/><ellipse cx="1303.65" cy="896.3441" fill="#ADD1B2" rx="11" ry="11" style="stroke: #A80036; stroke-width: 1.0;"/><path d="M1306.6188,901.9847 Q1306.0406,902.2816 1305.4,902.4222 Q1304.7594,902.5785 1304.0563,902.5785 Q1301.5563,902.5785 1300.2281,900.9379 Q1298.9156,899.2816 1298.9156,896.1566 Q1298.9156,893.0316 1300.2281,891.3754 Q1301.5563,889.7191 1304.0563,889.7191 Q1304.7594,889.7191 1305.4,889.8754 Q1306.0563,890.0316 1306.6188,890.3285 L1306.6188,893.0472 Q1305.9938,892.4691 1305.4,892.2035 Q1304.8063,891.9222 1304.1813,891.9222 Q1302.8375,891.9222 1302.15,893.0004 Q1301.4625,894.0629 1301.4625,896.1566 Q1301.4625,898.2504 1302.15,899.3285 Q1302.8375,900.391 1304.1813,900.391 Q1304.8063,900.391 1305.4,900.1254 Q1305.9938,899.8441 1306.6188,899.266 L1306.6188,901.9847 Z "/><text fill="#000000" font-family="sans-serif" font-size="12" font-style="italic" lengthAdjust="spacingAndGlyphs" textLength="60" x="1342.35" y="892.8281">«readonly»</text><text fill="#000000" font-family="sans-serif" font-size="12" lengthAdjust="spacingAndGlyphs" textLength="108" x="1318.35" y="909.1722">AccountCreditEntry</text><line style="stroke: #A80036; stroke-width: 1.5;" x1="1286.5" x2="1431.5" y1="917.6882" y2="917.6882"/><ellipse cx="1296.5" cy="928.6882" fill="none" rx="3" ry="3" style="stroke: #038048; stroke-width: 1.0;"/><text fill="#000000" font-family="sans-serif" font-size="11" lengthAdjust="spacingAndGlyphs" textLength="121" x="1305.5" y="933.4471">accountNumber: string</text><ellipse cx="1296.5" cy="943.6701" fill="none" rx="3" ry="3" style="stroke: #038048; stroke-width: 1.0;"/><text fill="#000000" font-family="sans-serif" font-size="11" lengthAdjust="spacingAndGlyphs" textLength="78" x="1305.5" y="948.429">credit: number</text><line style="stroke: #A80036; stroke-width: 1.5;" x1="1286.5" x2="1431.5" y1="955.652" y2="955.652"/><!--MD5=[cf018319bc057dd4264074aa9a093933]
class SomeTypes--><rect fill="#FEFECE" filter="url(#f18j2s00iycvad)" height="77.9638" id="SomeTypes" style="stroke: #A80036; stroke-width: 1.5;" width="97" x="1405.5" y="531"/><ellipse cx="1420.5" cy="547" fill="#EB937F" rx="11" ry="11" style="stroke: #A80036; stroke-width: 1.0;"/><path d="M1424.6094,553 L1416.8906,553 L1416.8906,540.6094 L1424.6094,540.6094 L1424.6094,542.7656 L1419.3438,542.7656 L1419.3438,545.4375 L1424.1094,545.4375 L1424.1094,547.5938 L1419.3438,547.5938 L1419.3438,550.8438 L1424.6094,550.8438 L1424.6094,553 Z "/><text fill="#000000" font-family="sans-serif" font-size="12" lengthAdjust="spacingAndGlyphs" textLength="65" x="1434.5" y="551.656">SomeTypes</text><line style="stroke: #A80036; stroke-width: 1.5;" x1="1406.5" x2="1501.5" y1="563" y2="563"/><text fill="#000000" font-family="sans-serif" font-size="11" lengthAdjust="spacingAndGlyphs" textLength="36" x="1411.5" y="578.7589">BLORB</text><text fill="#000000" font-family="sans-serif" font-size="11" lengthAdjust="spacingAndGlyphs" textLength="36" x="1411.5" y="593.7408">OTHER</text><line style="stroke: #A80036; stroke-width: 1.5;" x1="1406.5" x2="1501.5" y1="600.9638" y2="600.9638"/><!--MD5=[aca4f7ebf42cf77fd9e922bc194866a6]
class StringFields<T>--><rect fill="#FEFECE" filter="url(#f18j2s00iycvad)" height="58.6882" id="StringFields&lt;T&gt;" style="stroke: #A80036; stroke-width: 1.5;" width="118" x="1252" y="540.5"/><ellipse cx="1267" cy="561.8441" fill="#FFD700" rx="11" ry="11" style="stroke: #A80036; stroke-width: 1.0;"/><path d="M1267.8438,568.5941 L1265.3906,568.5941 L1265.3906,558.3441 L1262.25,558.3441 L1262.25,556.2035 L1270.9844,556.2035 L1270.9844,558.3441 L1267.8438,558.3441 L1267.8438,568.5941 Z "/><text fill="#000000" font-family="sans-serif" font-size="12" font-style="italic" lengthAdjust="spacingAndGlyphs" textLength="35" x="1306.5" y="558.3281">«type»</text><text fill="#000000" font-family="sans-serif" font-size="12" lengthAdjust="spacingAndGlyphs" textLength="86" x="1281" y="574.6722">StringFields&lt;T&gt;</text><line style="stroke: #A80036; stroke-width: 1.5;" x1="1253" x2="1369" y1="583.1882" y2="583.1882"/><line style="stroke: #A80036; stroke-width: 1.5;" x1="1253" x2="1369" y1="591.1882" y2="591.1882"/><!--MD5=[3f24aab021379f133759398dc63d0740]
class ObjectFields<T>--><rect fill="#FEFECE" filter="url(#f18j2s00iycvad)" height="58.6882" id="ObjectFields&lt;T&gt;" style="stroke: #A80036; stroke-width: 1.5;" width="121" x="1095.5" y="540.5"/><ellipse cx="1110.5" cy="561.8441" fill="#FFD700" rx="11" ry="11" style="stroke: #A80036; stroke-width: 1.0;"/><path d="M1111.3438,568.5941 L1108.8906,568.5941 L1108.8906,558.3441 L1105.75,558.3441 L1105.75,556.2035 L1114.4844,556.2035 L1114.4844,558.3441 L1111.3438,558.3441 L1111.3438,568.5941 Z "/><text fill="#000000" font-family="sans-serif" font-size="12" font-style="italic" lengthAdjust="spacingAndGlyphs" textLength="35" x="1151.5" y="558.3281">«type»</text><text fill="#000000" font-family="sans-serif" font-size="12" lengthAdjust="spacingAndGlyphs" textLength="89" x="1124.5" y="574.6722">ObjectFields&lt;T&gt;</text><line style="stroke: #A80036; stroke-width: 1.5;" x1="1096.5" x2="1215.5" y1="583.1882" y2="583.1882"/><line style="stroke: #A80036; stroke-width: 1.5;" x1="1096.5" x2="1215.5" y1="591.1882" y2="591.1882"/><!--MD5=[385f52f41ed538a97ebc963a87da29c4]
class FormData01ObjectFields--><rect fill="#FEFECE" filter="url(#f18j2s00iycvad)" height="58.6882" id="FormData01ObjectFields" style="stroke: #A80036; stroke-width: 1.5;" width="170" x="1095" y="361.5"/><ellipse cx="1110" cy="382.8441" fill="#FFD700" rx="11" ry="11" style="stroke: #A80036; stroke-width: 1.0;"/><path d="M1110.8438,389.5941 L1108.3906,389.5941 L1108.3906,379.3441 L1105.25,379.3441 L1105.25,377.2035 L1113.9844,377.2035 L1113.9844,379.3441 L1110.8438,379.3441 L1110.8438,389.5941 Z "/><text fill="#000000" font-family="sans-serif" font-size="12" font-style="italic" lengthAdjust="spacingAndGlyphs" textLength="35" x="1175.5" y="379.3281">«type»</text><text fill="#000000" font-family="sans-serif" font-size="12" lengthAdjust="spacingAndGlyphs" textLength="138" x="1124" y="395.6722">FormData01ObjectFields</text><line style="stroke: #A80036; stroke-width: 1.5;" x1="1096" x2="1264" y1="404.1882" y2="404.1882"/><line style="stroke: #A80036; stroke-width: 1.5;" x1="1096" x2="1264" y1="412.1882" y2="412.1882"/><!--MD5=[9cd2e8dcdb774a4c283891731bf97713]
class formData01Shape--><rect fill="#FEFECE" filter="url(#f18j2s00iycvad)" height="58.6882" id="formData01Shape" style="stroke: #A80036; stroke-width: 1.5;" width="135" x="247.5" y="540.5"/><ellipse cx="262.5" cy="561.8441" fill="#AAFFAA" rx="11" ry="11" style="stroke: #A80036; stroke-width: 1.0;"/><path d="M262.6094,557.4222 Q261.6719,557.4222 261.2344,558.4222 Q260.8125,559.4222 260.8125,561.6566 Q260.8125,563.891 261.2344,564.891 Q261.6719,565.891 262.6094,565.891 Q263.5625,565.891 263.9844,564.891 Q264.4219,563.891 264.4219,561.6566 Q264.4219,559.4222 263.9844,558.4222 Q263.5625,557.4222 262.6094,557.4222 Z M258.2656,561.6566 Q258.2656,558.4847 259.3594,556.8597 Q260.4688,555.2191 262.6094,555.2191 Q264.7656,555.2191 265.8594,556.8597 Q266.9688,558.4847 266.9688,561.6566 Q266.9688,564.8285 265.8594,566.4535 Q264.7656,568.0785 262.6094,568.0785 Q260.4688,568.0785 259.3594,566.4535 Q258.2656,564.8285 258.2656,561.6566 Z "/><text fill="#000000" font-family="sans-serif" font-size="12" font-style="italic" lengthAdjust="spacingAndGlyphs" textLength="40" x="308" y="558.3281">«const»</text><text fill="#000000" font-family="sans-serif" font-size="12" lengthAdjust="spacingAndGlyphs" textLength="103" x="276.5" y="574.6722">formData01Shape</text><line style="stroke: #A80036; stroke-width: 1.5;" x1="248.5" x2="381.5" y1="583.1882" y2="583.1882"/><line style="stroke: #A80036; stroke-width: 1.5;" x1="248.5" x2="381.5" y1="591.1882" y2="591.1882"/><!--MD5=[3d8492e08379897261c645c65c335405]
class example--><rect fill="#FEFECE" filter="url(#f18j2s00iycvad)" height="58.6882" id="example" style="stroke: #A80036; stroke-width: 1.5;" width="80" x="430" y="361.5"/><ellipse cx="445" cy="382.8441" fill="#AAFFAA" rx="11" ry="11" style="stroke: #A80036; stroke-width: 1.0;"/><path d="M445.1094,378.4222 Q444.1719,378.4222 443.7344,379.4222 Q443.3125,380.4222 443.3125,382.6566 Q443.3125,384.891 443.7344,385.891 Q444.1719,386.891 445.1094,386.891 Q446.0625,386.891 446.4844,385.891 Q446.9219,384.891 446.9219,382.6566 Q446.9219,380.4222 446.4844,379.4222 Q446.0625,378.4222 445.1094,378.4222 Z M440.7656,382.6566 Q440.7656,379.4847 441.8594,377.8597 Q442.9688,376.2191 445.1094,376.2191 Q447.2656,376.2191 448.3594,377.8597 Q449.4688,379.4847 449.4688,382.6566 Q449.4688,385.8285 448.3594,387.4535 Q447.2656,389.0785 445.1094,389.0785 Q442.9688,389.0785 441.8594,387.4535 Q440.7656,385.8285 440.7656,382.6566 Z "/><text fill="#000000" font-family="sans-serif" font-size="12" font-style="italic" lengthAdjust="spacingAndGlyphs" textLength="40" x="463" y="379.3281">«const»</text><text fill="#000000" font-family="sans-serif" font-size="12" lengthAdjust="spacingAndGlyphs" textLength="48" x="459" y="395.6722">example</text><line style="stroke: #A80036; stroke-width: 1.5;" x1="431" x2="509" y1="404.1882" y2="404.1882"/><line style="stroke: #A80036; stroke-width: 1.5;" x1="431" x2="509" y1="412.1882" y2="412.1882"/><!--MD5=[d51b3d919fcd44674471bdef99d37135]
class formData01StringKeys--><rect fill="#FEFECE" filter="url(#f18j2s00iycvad)" height="58.6882" id="formData01StringKeys" style="stroke: #A80036; stroke-width: 1.5;" width="159" x="235.5" y="361.5"/><ellipse cx="250.5" cy="382.8441" fill="#AAFFAA" rx="11" ry="11" style="stroke: #A80036; stroke-width: 1.0;"/><path d="M250.6094,378.4222 Q249.6719,378.4222 249.2344,379.4222 Q248.8125,380.4222 248.8125,382.6566 Q248.8125,384.891 249.2344,385.891 Q249.6719,386.891 250.6094,386.891 Q251.5625,386.891 251.9844,385.891 Q252.4219,384.891 252.4219,382.6566 Q252.4219,380.4222 251.9844,379.4222 Q251.5625,378.4222 250.6094,378.4222 Z M246.2656,382.6566 Q246.2656,379.4847 247.3594,377.8597 Q248.4688,376.2191 250.6094,376.2191 Q252.7656,376.2191 253.8594,377.8597 Q254.9688,379.4847 254.9688,382.6566 Q254.9688,385.8285 253.8594,387.4535 Q252.7656,389.0785 250.6094,389.0785 Q248.4688,389.0785 247.3594,387.4535 Q246.2656,385.8285 246.2656,382.6566 Z "/><text fill="#000000" font-family="sans-serif" font-size="12" font-style="italic" lengthAdjust="spacingAndGlyphs" textLength="40" x="308" y="379.3281">«const»</text><text fill="#000000" font-family="sans-serif" font-size="12" lengthAdjust="spacingAndGlyphs" textLength="127" x="264.5" y="395.6722">formData01StringKeys</text><line style="stroke: #A80036; stroke-width: 1.5;" x1="236.5" x2="393.5" y1="404.1882" y2="404.1882"/><line style="stroke: #A80036; stroke-width: 1.5;" x1="236.5" x2="393.5" y1="412.1882" y2="412.1882"/><!--MD5=[920dabb3db6d4737c753bae4792d194b]
class formData01ObjectKeys--><rect fill="#FEFECE" filter="url(#f18j2s00iycvad)" height="58.6882" id="formData01ObjectKeys" style="stroke: #A80036; stroke-width: 1.5;" width="162" x="38" y="361.5"/><ellipse cx="53" cy="382.8441" fill="#AAFFAA" rx="11" ry="11" style="stroke: #A80036; stroke-width: 1.0;"/><path d="M53.1094,378.4222 Q52.1719,378.4222 51.7344,379.4222 Q51.3125,380.4222 51.3125,382.6566 Q51.3125,384.891 51.7344,385.891 Q52.1719,386.891 53.1094,386.891 Q54.0625,386.891 54.4844,385.891 Q54.9219,384.891 54.9219,382.6566 Q54.9219,380.4222 54.4844,379.4222 Q54.0625,378.4222 53.1094,378.4222 Z M48.7656,382.6566 Q48.7656,379.4847 49.8594,377.8597 Q50.9688,376.2191 53.1094,376.2191 Q55.2656,376.2191 56.3594,377.8597 Q57.4688,379.4847 57.4688,382.6566 Q57.4688,385.8285 56.3594,387.4535 Q55.2656,389.0785 53.1094,389.0785 Q50.9688,389.0785 49.8594,387.4535 Q48.7656,385.8285 48.7656,382.6566 Z "/><text fill="#000000" font-family="sans-serif" font-size="12" font-style="italic" lengthAdjust="spacingAndGlyphs" textLength="40" x="112" y="379.3281">«const»</text><text fill="#000000" font-family="sans-serif" font-size="12" lengthAdjust="spacingAndGlyphs" textLength="130" x="67" y="395.6722">formData01ObjectKeys</text><line style="stroke: #A80036; stroke-width: 1.5;" x1="39" x2="199" y1="404.1882" y2="404.1882"/><line style="stroke: #A80036; stroke-width: 1.5;" x1="39" x2="199" y1="412.1882" y2="412.1882"/><!--MD5=[127f90e070b35e17b9694cf1dad3e5dd]
class toFriendlyLabel--><rect fill="#FEFECE" filter="url(#f18j2s00iycvad)" height="58.6882" id="toFriendlyLabel" style="stroke: #A80036; stroke-width: 1.5;" width="117" x="588.5" y="361.5"/><ellipse cx="603.5" cy="382.8441" fill="#FFAAAA" rx="11" ry="11" style="stroke: #A80036; stroke-width: 1.0;"/><path d="M607.7344,378.6097 L602.4531,378.6097 L602.4531,381.2816 L607.25,381.2816 L607.25,383.4379 L602.4531,383.4379 L602.4531,388.8441 L600.0156,388.8441 L600.0156,376.4535 L607.7344,376.4535 L607.7344,378.6097 Z "/><text fill="#000000" font-family="sans-serif" font-size="12" font-style="italic" lengthAdjust="spacingAndGlyphs" textLength="23" x="648.5" y="379.3281">«fn»</text><text fill="#000000" font-family="sans-serif" font-size="12" lengthAdjust="spacingAndGlyphs" textLength="85" x="617.5" y="395.6722">toFriendlyLabel</text><line style="stroke: #A80036; stroke-width: 1.5;" x1="589.5" x2="704.5" y1="404.1882" y2="404.1882"/><line style="stroke: #A80036; stroke-width: 1.5;" x1="589.5" x2="704.5" y1="412.1882" y2="412.1882"/><!--MD5=[cddf1fe0380d2ea625b1605056ad3100]
class toStringMetadata--><rect fill="#FEFECE" filter="url(#f18j2s00iycvad)" height="58.6882" id="toStringMetadata" style="stroke: #A80036; stroke-width: 1.5;" width="130" x="909" y="62.5"/><ellipse cx="924" cy="83.8441" fill="#FFAAAA" rx="11" ry="11" style="stroke: #A80036; stroke-width: 1.0;"/><path d="M928.2344,79.6097 L922.9531,79.6097 L922.9531,82.2816 L927.75,82.2816 L927.75,84.4379 L922.9531,84.4379 L922.9531,89.8441 L920.5156,89.8441 L920.5156,77.4535 L928.2344,77.4535 L928.2344,79.6097 Z "/><text fill="#000000" font-family="sans-serif" font-size="12" font-style="italic" lengthAdjust="spacingAndGlyphs" textLength="23" x="975.5" y="80.3281">«fn»</text><text fill="#000000" font-family="sans-serif" font-size="12" lengthAdjust="spacingAndGlyphs" textLength="98" x="938" y="96.6722">toStringMetadata</text><line style="stroke: #A80036; stroke-width: 1.5;" x1="910" x2="1038" y1="105.1882" y2="105.1882"/><line style="stroke: #A80036; stroke-width: 1.5;" x1="910" x2="1038" y1="113.1882" y2="113.1882"/><!--MD5=[605bed2cb43750037e7859e86bb6466e]
class toObjectMetadata--><rect fill="#FEFECE" filter="url(#f18j2s00iycvad)" height="58.6882" id="toObjectMetadata" style="stroke: #A80036; stroke-width: 1.5;" width="133" x="740.5" y="62.5"/><ellipse cx="755.5" cy="83.8441" fill="#FFAAAA" rx="11" ry="11" style="stroke: #A80036; stroke-width: 1.0;"/><path d="M759.7344,79.6097 L754.4531,79.6097 L754.4531,82.2816 L759.25,82.2816 L759.25,84.4379 L754.4531,84.4379 L754.4531,89.8441 L752.0156,89.8441 L752.0156,77.4535 L759.7344,77.4535 L759.7344,79.6097 Z "/><text fill="#000000" font-family="sans-serif" font-size="12" font-style="italic" lengthAdjust="spacingAndGlyphs" textLength="23" x="808.5" y="80.3281">«fn»</text><text fill="#000000" font-family="sans-serif" font-size="12" lengthAdjust="spacingAndGlyphs" textLength="101" x="769.5" y="96.6722">toObjectMetadata</text><line style="stroke: #A80036; stroke-width: 1.5;" x1="741.5" x2="872.5" y1="105.1882" y2="105.1882"/><line style="stroke: #A80036; stroke-width: 1.5;" x1="741.5" x2="872.5" y1="113.1882" y2="113.1882"/><!--MD5=[ecef5f6144c7eb9cecca4b97d9ca6d5e]
class objectFieldReducer--><rect fill="#FEFECE" filter="url(#f18j2s00iycvad)" height="58.6882" id="objectFieldReducer" style="stroke: #A80036; stroke-width: 1.5;" width="138" x="751" y="182.5"/><ellipse cx="766" cy="203.8441" fill="#FFAAAA" rx="11" ry="11" style="stroke: #A80036; stroke-width: 1.0;"/><path d="M770.2344,199.6097 L764.9531,199.6097 L764.9531,202.2816 L769.75,202.2816 L769.75,204.4379 L764.9531,204.4379 L764.9531,209.8441 L762.5156,209.8441 L762.5156,197.4535 L770.2344,197.4535 L770.2344,199.6097 Z "/><text fill="#000000" font-family="sans-serif" font-size="12" font-style="italic" lengthAdjust="spacingAndGlyphs" textLength="23" x="821.5" y="200.3281">«fn»</text><text fill="#000000" font-family="sans-serif" font-size="12" lengthAdjust="spacingAndGlyphs" textLength="106" x="780" y="216.6722">objectFieldReducer</text><line style="stroke: #A80036; stroke-width: 1.5;" x1="752" x2="888" y1="225.1882" y2="225.1882"/><line style="stroke: #A80036; stroke-width: 1.5;" x1="752" x2="888" y1="233.1882" y2="233.1882"/><!--MD5=[fd24a842bc4190a6cb449c978942b9a0]
class extractStringFields--><rect fill="#FEFECE" filter="url(#f18j2s00iycvad)" height="58.6882" id="extractStringFields" style="stroke: #A80036; stroke-width: 1.5;" width="136" x="572" y="182.5"/><ellipse cx="587" cy="203.8441" fill="#FFAAAA" rx="11" ry="11" style="stroke: #A80036; stroke-width: 1.0;"/><path d="M591.2344,199.6097 L585.9531,199.6097 L585.9531,202.2816 L590.75,202.2816 L590.75,204.4379 L585.9531,204.4379 L585.9531,209.8441 L583.5156,209.8441 L583.5156,197.4535 L591.2344,197.4535 L591.2344,199.6097 Z "/><text fill="#000000" font-family="sans-serif" font-size="12" font-style="italic" lengthAdjust="spacingAndGlyphs" textLength="23" x="641.5" y="200.3281">«fn»</text><text fill="#000000" font-family="sans-serif" font-size="12" lengthAdjust="spacingAndGlyphs" textLength="104" x="601" y="216.6722">extractStringFields</text><line style="stroke: #A80036; stroke-width: 1.5;" x1="573" x2="707" y1="225.1882" y2="225.1882"/><line style="stroke: #A80036; stroke-width: 1.5;" x1="573" x2="707" y1="233.1882" y2="233.1882"/><!--MD5=[ab2184108395a80351c712f022175b8d]
class extractObjectFields--><rect fill="#FEFECE" filter="url(#f18j2s00iycvad)" height="58.6882" id="extractObjectFields" style="stroke: #A80036; stroke-width: 1.5;" width="139" x="566.5" y="62.5"/><ellipse cx="581.5" cy="83.8441" fill="#FFAAAA" rx="11" ry="11" style="stroke: #A80036; stroke-width: 1.0;"/><path d="M585.7344,79.6097 L580.4531,79.6097 L580.4531,82.2816 L585.25,82.2816 L585.25,84.4379 L580.4531,84.4379 L580.4531,89.8441 L578.0156,89.8441 L578.0156,77.4535 L585.7344,77.4535 L585.7344,79.6097 Z "/><text fill="#000000" font-family="sans-serif" font-size="12" font-style="italic" lengthAdjust="spacingAndGlyphs" textLength="23" x="637.5" y="80.3281">«fn»</text><text fill="#000000" font-family="sans-serif" font-size="12" lengthAdjust="spacingAndGlyphs" textLength="107" x="595.5" y="96.6722">extractObjectFields</text><line style="stroke: #A80036; stroke-width: 1.5;" x1="567.5" x2="704.5" y1="105.1882" y2="105.1882"/><line style="stroke: #A80036; stroke-width: 1.5;" x1="567.5" x2="704.5" y1="113.1882" y2="113.1882"/><!--MD5=[fc27f09bcf6ed43c4fb94b44f33db898]
reverse link FormData01 to ObligorEntry--><path d="M1202.59,808.78 C1200.82,814.54 1199.25,820.33 1198,826 C1194.54,841.72 1192.87,859.27 1192.12,874.83 " fill="none" id="FormData01&lt;-ObligorEntry" style="stroke: #A80036; stroke-width: 1.0;"/><polygon fill="#A80036" points="1206.74,796.29,1201.0525,800.7231,1202.9571,807.6781,1208.6446,803.245,1206.74,796.29" style="stroke: #A80036; stroke-width: 1.0;"/><text fill="#000000" font-family="sans-serif" font-size="13" lengthAdjust="spacingAndGlyphs" textLength="112" x="1199" y="840.897">obligorObligations</text><!--MD5=[e3b3efb4716be7b325b7359e5b58d0f1]
reverse link FormData01 to AccountCreditEntry--><path d="M1300.06,806.1 C1305.76,812.56 1311.18,819.24 1316,826 C1326.59,840.85 1335.61,858.73 1342.62,874.79 " fill="none" id="FormData01&lt;-AccountCreditEntry" style="stroke: #A80036; stroke-width: 1.0;"/><polygon fill="#A80036" points="1290.89,796.17,1292.0174,803.2924,1299.0255,804.9912,1297.8982,797.8687,1290.89,796.17" style="stroke: #A80036; stroke-width: 1.0;"/><text fill="#000000" font-family="sans-serif" font-size="13" lengthAdjust="spacingAndGlyphs" textLength="90" x="1328" y="840.897">accountCredits</text><!--MD5=[2cbff4370b651274d982095cbdc4cd39]
link Metadata<T> to SomeTypes--><path d="M1391.63,437.58 C1404.59,464.89 1420.96,499.38 1433.68,526.18 " fill="none" id="Metadata&lt;T&gt;-&gt;SomeTypes" style="stroke: #A80036; stroke-width: 1.0;"/><polygon fill="#A80036" points="1435.85,530.75,1435.6162,520.9039,1433.7114,526.2304,1428.3849,524.3257,1435.85,530.75" style="stroke: #A80036; stroke-width: 1.0;"/><text fill="#000000" font-family="sans-serif" font-size="13" lengthAdjust="spacingAndGlyphs" textLength="56" x="1415" y="482.397">dataType</text><!--MD5=[6745e4ba5185267c6a715eef4882c520]
link StringFields<T> to FormData01--><path d="M1297.26,599.84 C1286.42,622.58 1270.96,655.04 1257.59,683.1 " fill="none" id="StringFields&lt;T&gt;-&gt;FormData01" style="stroke: #A80036; stroke-width: 1.0; stroke-dasharray: 7.0,7.0;"/><polygon fill="#A80036" points="1255.29,687.92,1262.7795,681.5241,1257.4458,683.4086,1255.5613,678.0749,1255.29,687.92" style="stroke: #A80036; stroke-width: 1.0;"/><text fill="#000000" font-family="sans-serif" font-size="13" lengthAdjust="spacingAndGlyphs" textLength="80" x="1278" y="653.897">string keys of</text><!--MD5=[4c7975f76d035be80abf0547ab25171d]
link ObjectFields<T> to FormData01--><path d="M1159.98,599.6 C1163.02,616.97 1168.07,639.31 1176,658 C1179.57,666.41 1183.99,674.91 1188.74,683.09 " fill="none" id="ObjectFields&lt;T&gt;-&gt;FormData01" style="stroke: #A80036; stroke-width: 1.0; stroke-dasharray: 7.0,7.0;"/><polygon fill="#A80036" points="1191.42,687.61,1190.2578,677.83,1188.8643,683.3125,1183.3818,681.919,1191.42,687.61" style="stroke: #A80036; stroke-width: 1.0;"/><text fill="#000000" font-family="sans-serif" font-size="13" lengthAdjust="spacingAndGlyphs" textLength="82" x="1177" y="653.897">object keys of</text><!--MD5=[3f281a184439c8008ff4bd2e122eaee2]
link FormData01ObjectFields to ObjectFields<T>--><path d="M1176.09,420.83 C1171.84,452.17 1165.06,502.18 1160.57,535.31 " fill="none" id="FormData01ObjectFields-&gt;ObjectFields&lt;T&gt;" style="stroke: #A80036; stroke-width: 1.0; stroke-dasharray: 7.0,7.0;"/><polygon fill="#A80036" points="1159.87,540.47,1165.045,532.0903,1160.543,535.5155,1157.1178,531.0135,1159.87,540.47" style="stroke: #A80036; stroke-width: 1.0;"/><text fill="#000000" font-family="sans-serif" font-size="13" lengthAdjust="spacingAndGlyphs" textLength="26" x="1170" y="482.397">alias</text><!--MD5=[01248bb52f060853ee16ee92ef69f0c7]
link formData01Shape to FormData01--><path d="M367.18,599.54 C405.55,619.21 459.59,644.2 510,658 C700.09,710.04 927.11,729.47 1074.7,736.71 " fill="none" id="formData01Shape-&gt;FormData01" style="stroke: #A80036; stroke-width: 1.0; stroke-dasharray: 7.0,7.0;"/><polygon fill="none" points="1075.33,729.74,1094.99,737.66,1074.68,743.72,1075.33,729.74" style="stroke: #A80036; stroke-width: 1.0;"/><!--MD5=[c99f0cdf48db7702e2c8075c2acec472]
link example to FormData01--><path d="M480.77,420.88 C501,470.84 549.63,572.92 626,623.5 C698.13,671.27 920.79,705.63 1074.61,724.43 " fill="none" id="example-&gt;FormData01" style="stroke: #A80036; stroke-width: 1.0; stroke-dasharray: 7.0,7.0;"/><polygon fill="none" points="1075.88,717.53,1094.9,726.86,1074.2,731.43,1075.88,717.53" style="stroke: #A80036; stroke-width: 1.0;"/><!--MD5=[aa06ecb845bc3bfa84cfbdddec57a8cb]
link formData01StringKeys to formData01Shape--><path d="M315,420.83 C315,452.17 315,502.18 315,535.31 " fill="none" id="formData01StringKeys-&gt;formData01Shape" style="stroke: #A80036; stroke-width: 1.0;"/><polygon fill="#A80036" points="315,540.47,319,531.47,315,535.47,311,531.47,315,540.47" style="stroke: #A80036; stroke-width: 1.0;"/><text fill="#000000" font-family="sans-serif" font-size="13" lengthAdjust="spacingAndGlyphs" textLength="67" x="316" y="482.397">keys + filter</text><!--MD5=[e69c11723d535908b69ebaf6579d46a5]
link formData01ObjectKeys to formData01Shape--><path d="M150.93,420.83 C186.2,452.68 242.84,503.84 279.49,536.93 " fill="none" id="formData01ObjectKeys-&gt;formData01Shape" style="stroke: #A80036; stroke-width: 1.0;"/><polygon fill="#A80036" points="283.41,540.47,279.3962,531.4761,279.6935,537.1252,274.0445,537.4225,283.41,540.47" style="stroke: #A80036; stroke-width: 1.0;"/><text fill="#000000" font-family="sans-serif" font-size="13" lengthAdjust="spacingAndGlyphs" textLength="67" x="224" y="482.397">keys + filter</text><!--MD5=[f042a587ce0bbff51376f5ea8b5fd055]
link toFriendlyLabel to capitalCase--><path d="M654,420.83 C661.62,452.17 673.77,502.18 681.81,535.31 " fill="none" id="toFriendlyLabel-&gt;capitalCase" style="stroke: #A80036; stroke-width: 1.0;"/><polygon fill="#A80036" points="683.07,540.47,684.8215,530.7781,681.8842,535.6126,677.0497,532.6754,683.07,540.47" style="stroke: #A80036; stroke-width: 1.0;"/><!--MD5=[1a1b4f093ce09f094d8393d79c548217]
link toStringMetadata to Metadata<T>--><path d="M1039.17,101.77 C1125.71,114.83 1271.66,142.25 1306,182.5 C1343.82,226.82 1359.3,293.25 1365.63,338.94 " fill="none" id="toStringMetadata-&gt;Metadata&lt;T&gt;" style="stroke: #A80036; stroke-width: 1.0; stroke-dasharray: 7.0,7.0;"/><polygon fill="#A80036" points="1366.32,344.13,1369.0722,334.6735,1365.647,339.1755,1361.145,335.7503,1366.32,344.13" style="stroke: #A80036; stroke-width: 1.0;"/><text fill="#000000" font-family="sans-serif" font-size="13" lengthAdjust="spacingAndGlyphs" textLength="107" x="1341" y="217.397">Metadata&lt;string&gt;</text><!--MD5=[da646cc7f95af514637983c15de98d18]
link toObjectMetadata to Metadata<T>--><path d="M873.55,116.29 C879.76,118.17 885.97,119.94 892,121.5 C1006.89,151.31 1049.01,123.5 1152,182.5 C1185.85,201.89 1187.79,215.64 1217,241.5 C1246.02,267.19 1254.95,271.76 1283,298.5 C1296.92,311.77 1311.52,326.7 1324.7,340.58 " fill="none" id="toObjectMetadata-&gt;Metadata&lt;T&gt;" style="stroke: #A80036; stroke-width: 1.0; stroke-dasharray: 7.0,7.0;"/><polygon fill="#A80036" points="1328.38,344.47,1325.087,335.188,1324.9385,340.8429,1319.2836,340.6944,1328.38,344.47" style="stroke: #A80036; stroke-width: 1.0;"/><text fill="#000000" font-family="sans-serif" font-size="13" lengthAdjust="spacingAndGlyphs" textLength="79" x="1218" y="217.397">Metadata&lt;T&gt;</text><!--MD5=[826d3fcc5eef014b7181fd8aefab642b]
link objectFieldReducer to toFriendlyLabel--><path d="M750.72,235.16 C705.88,249.83 655.25,267.13 652,271.5 C634.1,295.6 634.96,330.68 639.03,356.42 " fill="none" id="objectFieldReducer-&gt;toFriendlyLabel" style="stroke: #A80036; stroke-width: 1.0;"/><polygon fill="#A80036" points="639.88,361.43,642.3057,351.8845,639.0372,356.5015,634.4201,353.2331,639.88,361.43" style="stroke: #A80036; stroke-width: 1.0;"/><!--MD5=[f6e28db7364e80881dc3f980094c5042]
link objectFieldReducer to pluralize--><path d="M819.52,241.53 C818.42,306.5 815.75,465.21 814.57,535.06 " fill="none" id="objectFieldReducer-&gt;pluralize" style="stroke: #A80036; stroke-width: 1.0;"/><polygon fill="#A80036" points="814.48,540.33,818.6337,531.3999,814.5657,535.3307,810.6349,531.2628,814.48,540.33" style="stroke: #A80036; stroke-width: 1.0;"/><!--MD5=[36735e9450480b4e7780ec6e729b6113]
link objectFieldReducer to Metadata<T>--><path d="M835.16,241.7 C846.15,259.26 862.79,280.25 884,290.5 C923.92,309.8 1242.43,280.61 1283,298.5 C1303.34,307.47 1321.22,323.69 1335.39,340.01 " fill="none" id="objectFieldReducer-&gt;Metadata&lt;T&gt;" style="stroke: #A80036; stroke-width: 1.0; stroke-dasharray: 7.0,7.0;"/><polygon fill="#A80036" points="1338.91,344.16,1336.1279,334.7123,1335.6713,340.3507,1330.0329,339.8941,1338.91,344.16" style="stroke: #A80036; stroke-width: 1.0;"/><text fill="#000000" font-family="sans-serif" font-size="13" lengthAdjust="spacingAndGlyphs" textLength="115" x="885" y="286.397">Metadata&lt;string&gt;[]</text><!--MD5=[34a5f480d218eed545834a17ff12f20a]
link extractStringFields to formData01StringKeys--><path d="M571.91,230.77 C524.8,244.88 461.86,267.41 412,298.5 C386.22,314.58 361.37,338.22 343.28,357.44 " fill="none" id="extractStringFields-&gt;formData01StringKeys" style="stroke: #A80036; stroke-width: 1.0;"/><polygon fill="#A80036" points="339.76,361.23,348.8176,357.3621,343.1644,357.5681,342.9585,351.915,339.76,361.23" style="stroke: #A80036; stroke-width: 1.0;"/><!--MD5=[d0c81cf2e5cdf2d0a214304898867df3]
link extractStringFields to toFriendlyLabel--><path d="M641.14,241.83 C642.38,273.17 644.36,323.18 645.67,356.31 " fill="none" id="extractStringFields-&gt;toFriendlyLabel" style="stroke: #A80036; stroke-width: 1.0;"/><polygon fill="#A80036" points="645.87,361.47,649.506,352.3169,645.6696,356.474,641.5125,352.6376,645.87,361.47" style="stroke: #A80036; stroke-width: 1.0;"/><!--MD5=[ede94b90443314dbc331017eca8c2012]
link extractStringFields to Metadata<T>--><path d="M664.8,241.58 C682.16,259.33 707,280.58 734,290.5 C762.63,301.02 1255.06,286.27 1283,298.5 C1303.36,307.41 1321.24,323.62 1335.42,339.95 " fill="none" id="extractStringFields-&gt;Metadata&lt;T&gt;" style="stroke: #A80036; stroke-width: 1.0; stroke-dasharray: 7.0,7.0;"/><polygon fill="#A80036" points="1338.94,344.1,1336.1579,334.6523,1335.7013,340.2907,1330.0629,339.8341,1338.94,344.1" style="stroke: #A80036; stroke-width: 1.0;"/><text fill="#000000" font-family="sans-serif" font-size="13" lengthAdjust="spacingAndGlyphs" textLength="115" x="735" y="286.397">Metadata&lt;string&gt;[]</text><!--MD5=[ec3f334885fbd8fd910ff2cab883d593]
link extractObjectFields to formData01ObjectKeys--><path d="M566.44,119.89 C480.65,154.66 332.18,220.14 218,298.5 C193.03,315.63 168.02,338.82 149.38,357.56 " fill="none" id="extractObjectFields-&gt;formData01ObjectKeys" style="stroke: #A80036; stroke-width: 1.0;"/><polygon fill="#A80036" points="145.74,361.25,154.9108,357.6588,149.254,357.6931,149.2198,352.0364,145.74,361.25" style="stroke: #A80036; stroke-width: 1.0;"/><!--MD5=[8c7bf70f4bfa9b591a3e21309e32ad20]
link extractObjectFields to objectFieldReducer--><path d="M680.54,121.56 C707.9,139.11 742.97,161.6 771.1,179.64 " fill="none" id="extractObjectFields-&gt;objectFieldReducer" style="stroke: #A80036; stroke-width: 1.0;"/><polygon fill="#A80036" points="775.55,182.49,770.1297,174.2668,771.3399,179.7927,765.8141,181.0029,775.55,182.49" style="stroke: #A80036; stroke-width: 1.0;"/><!--MD5=[3330e6f9a95241682959a76c08fb55f8]
link extractObjectFields to Metadata<T>--><path d="M705.55,115.84 C784.22,141.69 902.13,180.51 907,182.5 C962.01,204.98 970.96,221.71 1027,241.5 C1120.23,274.43 1147.35,269.68 1244,290.5 C1261.3,294.23 1267.53,289.92 1283,298.5 C1301.73,308.89 1318.84,324.68 1332.83,340.23 " fill="none" id="extractObjectFields-&gt;Metadata&lt;T&gt;" style="stroke: #A80036; stroke-width: 1.0; stroke-dasharray: 7.0,7.0;"/><polygon fill="#A80036" points="1336.32,344.18,1333.3683,334.7839,1333.0133,340.4296,1327.3676,340.0746,1336.32,344.18" style="stroke: #A80036; stroke-width: 1.0;"/><text fill="#000000" font-family="sans-serif" font-size="13" lengthAdjust="spacingAndGlyphs" textLength="115" x="1028" y="217.397">Metadata&lt;string&gt;[]</text><!--MD5=[33bd70e987259827cead72a54b7d8c60]
@startuml

skinparam packageStyle rectangle

package "npm" {
  class pluralize << (L,#AADDFF) library >>
  class capitalCase << (L,#AADDFF) library >>
}

package "types" {
  class "Metadata<T>" {
    + name: string
    + dataType: SomeTypes
    + value: T
  }

  class FormData01 {
    + name: string
    + email: string
    + obligorObligations: readonly ObligorEntry[]
    + accountCredits: readonly AccountCreditEntry[]
  }

  class ObligorEntry << readonly >> {
    + obligor: string
    + obligation: string
  }

  class AccountCreditEntry << readonly >> {
    + accountNumber: string
    + credit: number
  }

  enum SomeTypes {
    BLORB
    OTHER
  }

  class "StringFields<T>" << (T,#FFD700) type >>
  class "ObjectFields<T>" << (T,#FFD700) type >>
  class "FormData01ObjectFields" << (T,#FFD700) type >>
}

package "data" {
  class formData01Shape << (O,#AAFFAA) const >>
  class example << (O,#AAFFAA) const >>
  class formData01StringKeys << (O,#AAFFAA) const >>
  class formData01ObjectKeys << (O,#AAFFAA) const >>
}

package "functions" {
  class toFriendlyLabel << (F,#FFAAAA) fn >>
  class toStringMetadata << (F,#FFAAAA) fn >>
  class toObjectMetadata << (F,#FFAAAA) fn >>
  class objectFieldReducer << (F,#FFAAAA) fn >>
  class extractStringFields << (F,#FFAAAA) fn >>
  class extractObjectFields << (F,#FFAAAA) fn >>
}

FormData01 *- - ObligorEntry : obligorObligations
FormData01 *- - AccountCreditEntry : accountCredits
"Metadata<T>" - -> SomeTypes : dataType
"StringFields<T>" ..> FormData01 : string keys of
"ObjectFields<T>" ..> FormData01 : object keys of
"FormData01ObjectFields" ..> "ObjectFields<T>" : alias

formData01Shape ..|> FormData01
example ..|> FormData01
formData01StringKeys - -> formData01Shape : keys + filter
formData01ObjectKeys - -> formData01Shape : keys + filter

toFriendlyLabel - -> capitalCase
toStringMetadata ..> "Metadata<T>" : Metadata<string>
toObjectMetadata ..> "Metadata<T>" : Metadata<T>

objectFieldReducer - -> toFriendlyLabel
objectFieldReducer - -> pluralize
objectFieldReducer ..> "Metadata<T>" : Metadata<string>[]

extractStringFields - -> formData01StringKeys
extractStringFields - -> toFriendlyLabel
extractStringFields ..> "Metadata<T>" : Metadata<string>[]

extractObjectFields - -> formData01ObjectKeys
extractObjectFields - -> objectFieldReducer
extractObjectFields ..> "Metadata<T>" : Metadata<string>[]

@enduml

PlantUML version 1.2020.02(Sun Mar 01 05:22:07 EST 2020)
(GPL source distribution)
Java Runtime: OpenJDK Runtime Environment
JVM: OpenJDK 64-Bit Server VM
Java Version: 17.0.15+6-Ubuntu-0ubuntu124.10
Operating System: Linux
Default Encoding: UTF-8
Language: en
Country: US
--></g></svg>